<?xml version="1.0" encoding="UTF-8"?>
<svg style="vertical-align: -0.566ex;" xmlns="http://www.w3.org/2000/svg" width="56.135ex" height="2.262ex" role="img" focusable="false" viewBox="0 -750 24811.8 1000"><g stroke="#e6edf3" fill="#e6edf3" stroke-width="0" transform="scale(1,-1)"><g data-mml-node="math"><g data-mml-node="TeXAtom" data-mjx-texclass="ORD"><g data-mml-node="mi"><path data-c="77" d="M90 368Q84 378 76 380T40 385H18V431H24L43 430Q62 430 84 429T116 428Q206 428 221 431H229V385H215Q177 383 177 368Q177 367 221 239L265 113L339 328L333 345Q323 374 316 379Q308 384 278 385H258V431H264Q270 428 348 428Q439 428 454 431H461V385H452Q404 385 404 369Q404 366 418 324T449 234T481 143L496 100L537 219Q579 341 579 347Q579 363 564 373T530 385H522V431H529Q541 428 624 428Q692 428 698 431H703V385H697Q696 385 691 385T682 384Q635 377 619 334L559 161Q546 124 528 71Q508 12 503 1T487 -11H479Q460 -11 456 -4Q455 -3 407 133L361 267Q359 263 266 -4Q261 -11 243 -11H238Q225 -11 220 -3L90 368Z"></path><path data-c="72" d="M36 46H50Q89 46 97 60V68Q97 77 97 91T98 122T98 161T98 203Q98 234 98 269T98 328L97 351Q94 370 83 376T38 385H20V408Q20 431 22 431L32 432Q42 433 60 434T96 436Q112 437 131 438T160 441T171 442H174V373Q213 441 271 441H277Q322 441 343 419T364 373Q364 352 351 337T313 322Q288 322 276 338T263 372Q263 381 265 388T270 400T273 405Q271 407 250 401Q234 393 226 386Q179 341 179 207V154Q179 141 179 127T179 101T180 81T180 66V61Q181 59 183 57T188 54T193 51T200 49T207 48T216 47T225 47T235 46T245 46H276V0H267Q249 3 140 3Q37 3 28 0H20V46H36Z" transform="translate(722,0)"></path><path data-c="69" d="M69 609Q69 637 87 653T131 669Q154 667 171 652T188 609Q188 579 171 564T129 549Q104 549 87 564T69 609ZM247 0Q232 3 143 3Q132 3 106 3T56 1L34 0H26V46H42Q70 46 91 49Q100 53 102 60T104 102V205V293Q104 345 102 359T88 378Q74 385 41 385H30V408Q30 431 32 431L42 432Q52 433 70 434T106 436Q123 437 142 438T171 441T182 442H185V62Q190 52 197 50T232 46H255V0H247Z" transform="translate(1114,0)"></path><path data-c="74" d="M27 422Q80 426 109 478T141 600V615H181V431H316V385H181V241Q182 116 182 100T189 68Q203 29 238 29Q282 29 292 100Q293 108 293 146V181H333V146V134Q333 57 291 17Q264 -10 221 -10Q187 -10 162 2T124 33T105 68T98 100Q97 107 97 248V385H18V422H27Z" transform="translate(1392,0)"></path><path data-c="65" d="M28 218Q28 273 48 318T98 391T163 433T229 448Q282 448 320 430T378 380T406 316T415 245Q415 238 408 231H126V216Q126 68 226 36Q246 30 270 30Q312 30 342 62Q359 79 369 104L379 128Q382 131 395 131H398Q415 131 415 121Q415 117 412 108Q393 53 349 21T250 -11Q155 -11 92 58T28 218ZM333 275Q322 403 238 411H236Q228 411 220 410T195 402T166 381T143 340T127 274V267H333V275Z" transform="translate(1781,0)"></path></g></g><g data-mml-node="mo" transform="translate(2225,0)"><path data-c="28" d="M94 250Q94 319 104 381T127 488T164 576T202 643T244 695T277 729T302 750H315H319Q333 750 333 741Q333 738 316 720T275 667T226 581T184 443T167 250T184 58T225 -81T274 -167T316 -220T333 -241Q333 -250 318 -250H315H302L274 -226Q180 -141 137 -14T94 250Z"></path></g><g data-mml-node="TeXAtom" data-mjx-texclass="ORD" transform="translate(2614,0)"><g data-mml-node="mi"><path data-c="74" d="M94 385Q87 392 87 395Q87 399 90 411T95 425Q97 430 103 430T149 431H196L215 511Q218 521 222 539T228 565T234 585T242 603T251 615T264 623T281 626Q311 626 315 597Q315 591 296 513T275 433Q275 431 320 431H366Q373 424 373 420Q373 398 360 385H263L189 86Q188 80 188 61V54Q188 29 201 27Q213 23 229 30Q253 37 276 66T316 138Q321 149 324 151T342 153H347Q364 153 364 146T360 130Q331 63 290 26T202 -11Q158 -11 135 18T111 81Q111 93 129 168T166 314L184 383Q184 385 139 385H94Z"></path><path data-c="6D" d="M81 278Q75 284 75 289Q77 299 89 338Q101 373 114 396T142 428T166 439T186 442H189Q225 440 251 417Q266 401 271 384L275 374L286 386Q342 442 414 442Q428 442 440 440T461 435T479 427T493 418T503 407T511 397T516 387T520 378T523 370L524 366Q546 395 583 418T667 442Q729 442 755 411T782 338Q782 290 743 178T704 45Q704 26 720 26Q773 26 802 136Q805 148 807 150T822 153H828Q838 153 841 153T848 150T851 143Q851 137 843 115T821 63T778 12T715 -10Q671 -10 652 16T632 71Q632 88 668 191T704 349Q704 367 703 372Q693 405 664 405Q637 405 613 393T571 360T547 329T534 309Q523 290 518 274T487 151Q455 24 452 16Q438 -11 408 -11T376 18Q376 26 411 167T447 314Q449 325 449 346Q449 372 444 384Q431 405 408 405Q334 405 276 305Q266 289 262 273T231 151Q199 24 196 16Q182 -11 152 -11T120 18Q120 26 159 182T200 347Q202 361 202 372Q202 405 181 405Q168 405 159 391Q145 374 132 328T117 280T98 278H81Z" transform="translate(332,0)"></path><path data-c="70" d="M81 278Q75 284 75 287Q93 379 131 417Q154 442 189 442Q222 440 243 423T272 382L280 390Q335 442 389 442Q446 442 482 398T518 284Q518 212 480 137T375 19Q321 -10 291 -10H282H278Q237 -10 204 28L202 32L181 -51Q160 -135 160 -139Q160 -147 205 -148H230Q236 -155 236 -157T233 -175Q230 -187 227 -190T214 -194Q211 -194 202 -194T169 -193T108 -192Q40 -192 21 -194H13Q6 -187 6 -183T9 -167Q13 -153 16 -151T39 -148Q73 -147 78 -136Q82 -128 139 104Q199 337 199 347Q202 362 202 372Q202 406 182 406Q169 406 159 391Q145 374 132 328T117 280T98 278H81ZM221 111Q234 26 286 26Q307 26 336 47T385 116Q398 147 416 217T435 332Q435 354 433 361Q420 405 383 405Q333 405 279 326L273 317L221 111Z" transform="translate(1150,0)"></path></g></g><g data-mml-node="mo" transform="translate(4275,0)"><path data-c="29" d="M60 749L64 750Q69 750 74 750H86L114 726Q208 641 251 514T294 250Q294 182 284 119T261 12T224 -76T186 -143T145 -194T113 -227T90 -246Q87 -249 86 -250H74Q66 -250 63 -250T58 -247T55 -238Q56 -237 66 -225Q221 -64 221 250T66 725Q56 737 55 738Q55 746 60 749Z"></path></g><g data-mml-node="mstyle" transform="translate(4664,0)"><g data-mml-node="mspace"></g></g><g data-mml-node="mo" transform="translate(5219.8,0)"><path data-c="27F6" d="M84 237T84 250T98 270H1444Q1328 357 1301 493Q1301 494 1301 496T1300 499Q1300 511 1317 511H1320Q1329 511 1332 510T1338 506T1341 497T1344 481T1352 456Q1374 389 1425 336T1544 261Q1553 258 1553 250Q1553 244 1548 241T1524 231T1486 212Q1445 186 1415 152T1370 85T1349 35T1341 4Q1339 -6 1336 -8T1320 -11Q1300 -11 1300 0Q1300 7 1305 25Q1337 151 1444 230H98Q84 237 84 250Z"></path></g><g data-mml-node="mstyle" transform="translate(6857.8,0)"><g data-mml-node="mspace"></g></g><g data-mml-node="TeXAtom" data-mjx-texclass="ORD" transform="translate(7413.6,0)"><g data-mml-node="mi"><path data-c="76" d="M338 431Q344 429 422 429Q479 429 503 431H508V385H497Q439 381 423 345Q421 341 356 172T288 -2Q283 -11 263 -11Q244 -11 239 -2Q99 359 98 364Q93 378 82 381T43 385H19V431H25L33 430Q41 430 53 430T79 430T104 429T122 428Q217 428 232 431H240V385H226Q187 384 184 370Q184 366 235 234L286 102L377 341V349Q377 363 367 372T349 383T335 385H331V431H338Z"></path><path data-c="61" d="M137 305T115 305T78 320T63 359Q63 394 97 421T218 448Q291 448 336 416T396 340Q401 326 401 309T402 194V124Q402 76 407 58T428 40Q443 40 448 56T453 109V145H493V106Q492 66 490 59Q481 29 455 12T400 -6T353 12T329 54V58L327 55Q325 52 322 49T314 40T302 29T287 17T269 6T247 -2T221 -8T190 -11Q130 -11 82 20T34 107Q34 128 41 147T68 188T116 225T194 253T304 268H318V290Q318 324 312 340Q290 411 215 411Q197 411 181 410T156 406T148 403Q170 388 170 359Q170 334 154 320ZM126 106Q126 75 150 51T209 26Q247 26 276 49T315 109Q317 116 318 175Q318 233 317 233Q309 233 296 232T251 223T193 203T147 166T126 106Z" transform="translate(528,0)"></path><path data-c="6C" d="M42 46H56Q95 46 103 60V68Q103 77 103 91T103 124T104 167T104 217T104 272T104 329Q104 366 104 407T104 482T104 542T103 586T103 603Q100 622 89 628T44 637H26V660Q26 683 28 683L38 684Q48 685 67 686T104 688Q121 689 141 690T171 693T182 694H185V379Q185 62 186 60Q190 52 198 49Q219 46 247 46H263V0H255L232 1Q209 2 183 2T145 3T107 3T57 1L34 0H26V46H42Z" transform="translate(1028,0)"></path><path data-c="69" d="M69 609Q69 637 87 653T131 669Q154 667 171 652T188 609Q188 579 171 564T129 549Q104 549 87 564T69 609ZM247 0Q232 3 143 3Q132 3 106 3T56 1L34 0H26V46H42Q70 46 91 49Q100 53 102 60T104 102V205V293Q104 345 102 359T88 378Q74 385 41 385H30V408Q30 431 32 431L42 432Q52 433 70 434T106 436Q123 437 142 438T171 441T182 442H185V62Q190 52 197 50T232 46H255V0H247Z" transform="translate(1306,0)"></path><path data-c="64" d="M376 495Q376 511 376 535T377 568Q377 613 367 624T316 637H298V660Q298 683 300 683L310 684Q320 685 339 686T376 688Q393 689 413 690T443 693T454 694H457V390Q457 84 458 81Q461 61 472 55T517 46H535V0Q533 0 459 -5T380 -11H373V44L365 37Q307 -11 235 -11Q158 -11 96 50T34 215Q34 315 97 378T244 442Q319 442 376 393V495ZM373 342Q328 405 260 405Q211 405 173 369Q146 341 139 305T131 211Q131 155 138 120T173 59Q203 26 251 26Q322 26 373 103V342Z" transform="translate(1584,0)"></path><path data-c="61" d="M137 305T115 305T78 320T63 359Q63 394 97 421T218 448Q291 448 336 416T396 340Q401 326 401 309T402 194V124Q402 76 407 58T428 40Q443 40 448 56T453 109V145H493V106Q492 66 490 59Q481 29 455 12T400 -6T353 12T329 54V58L327 55Q325 52 322 49T314 40T302 29T287 17T269 6T247 -2T221 -8T190 -11Q130 -11 82 20T34 107Q34 128 41 147T68 188T116 225T194 253T304 268H318V290Q318 324 312 340Q290 411 215 411Q197 411 181 410T156 406T148 403Q170 388 170 359Q170 334 154 320ZM126 106Q126 75 150 51T209 26Q247 26 276 49T315 109Q317 116 318 175Q318 233 317 233Q309 233 296 232T251 223T193 203T147 166T126 106Z" transform="translate(2140,0)"></path><path data-c="74" d="M27 422Q80 426 109 478T141 600V615H181V431H316V385H181V241Q182 116 182 100T189 68Q203 29 238 29Q282 29 292 100Q293 108 293 146V181H333V146V134Q333 57 291 17Q264 -10 221 -10Q187 -10 162 2T124 33T105 68T98 100Q97 107 97 248V385H18V422H27Z" transform="translate(2640,0)"></path><path data-c="65" d="M28 218Q28 273 48 318T98 391T163 433T229 448Q282 448 320 430T378 380T406 316T415 245Q415 238 408 231H126V216Q126 68 226 36Q246 30 270 30Q312 30 342 62Q359 79 369 104L379 128Q382 131 395 131H398Q415 131 415 121Q415 117 412 108Q393 53 349 21T250 -11Q155 -11 92 58T28 218ZM333 275Q322 403 238 411H236Q228 411 220 410T195 402T166 381T143 340T127 274V267H333V275Z" transform="translate(3029,0)"></path></g></g><g data-mml-node="mo" transform="translate(10886.6,0)"><path data-c="28" d="M94 250Q94 319 104 381T127 488T164 576T202 643T244 695T277 729T302 750H315H319Q333 750 333 741Q333 738 316 720T275 667T226 581T184 443T167 250T184 58T225 -81T274 -167T316 -220T333 -241Q333 -250 318 -250H315H302L274 -226Q180 -141 137 -14T94 250Z"></path></g><g data-mml-node="TeXAtom" data-mjx-texclass="ORD" transform="translate(11275.6,0)"><g data-mml-node="mi"><path data-c="74" d="M94 385Q87 392 87 395Q87 399 90 411T95 425Q97 430 103 430T149 431H196L215 511Q218 521 222 539T228 565T234 585T242 603T251 615T264 623T281 626Q311 626 315 597Q315 591 296 513T275 433Q275 431 320 431H366Q373 424 373 420Q373 398 360 385H263L189 86Q188 80 188 61V54Q188 29 201 27Q213 23 229 30Q253 37 276 66T316 138Q321 149 324 151T342 153H347Q364 153 364 146T360 130Q331 63 290 26T202 -11Q158 -11 135 18T111 81Q111 93 129 168T166 314L184 383Q184 385 139 385H94Z"></path><path data-c="6D" d="M81 278Q75 284 75 289Q77 299 89 338Q101 373 114 396T142 428T166 439T186 442H189Q225 440 251 417Q266 401 271 384L275 374L286 386Q342 442 414 442Q428 442 440 440T461 435T479 427T493 418T503 407T511 397T516 387T520 378T523 370L524 366Q546 395 583 418T667 442Q729 442 755 411T782 338Q782 290 743 178T704 45Q704 26 720 26Q773 26 802 136Q805 148 807 150T822 153H828Q838 153 841 153T848 150T851 143Q851 137 843 115T821 63T778 12T715 -10Q671 -10 652 16T632 71Q632 88 668 191T704 349Q704 367 703 372Q693 405 664 405Q637 405 613 393T571 360T547 329T534 309Q523 290 518 274T487 151Q455 24 452 16Q438 -11 408 -11T376 18Q376 26 411 167T447 314Q449 325 449 346Q449 372 444 384Q431 405 408 405Q334 405 276 305Q266 289 262 273T231 151Q199 24 196 16Q182 -11 152 -11T120 18Q120 26 159 182T200 347Q202 361 202 372Q202 405 181 405Q168 405 159 391Q145 374 132 328T117 280T98 278H81Z" transform="translate(332,0)"></path><path data-c="70" d="M81 278Q75 284 75 287Q93 379 131 417Q154 442 189 442Q222 440 243 423T272 382L280 390Q335 442 389 442Q446 442 482 398T518 284Q518 212 480 137T375 19Q321 -10 291 -10H282H278Q237 -10 204 28L202 32L181 -51Q160 -135 160 -139Q160 -147 205 -148H230Q236 -155 236 -157T233 -175Q230 -187 227 -190T214 -194Q211 -194 202 -194T169 -193T108 -192Q40 -192 21 -194H13Q6 -187 6 -183T9 -167Q13 -153 16 -151T39 -148Q73 -147 78 -136Q82 -128 139 104Q199 337 199 347Q202 362 202 372Q202 406 182 406Q169 406 159 391Q145 374 132 328T117 280T98 278H81ZM221 111Q234 26 286 26Q307 26 336 47T385 116Q398 147 416 217T435 332Q435 354 433 361Q420 405 383 405Q333 405 279 326L273 317L221 111Z" transform="translate(1150,0)"></path></g></g><g data-mml-node="mo" transform="translate(12936.6,0)"><path data-c="29" d="M60 749L64 750Q69 750 74 750H86L114 726Q208 641 251 514T294 250Q294 182 284 119T261 12T224 -76T186 -143T145 -194T113 -227T90 -246Q87 -249 86 -250H74Q66 -250 63 -250T58 -247T55 -238Q56 -237 66 -225Q221 -64 221 250T66 725Q56 737 55 738Q55 746 60 749Z"></path></g><g data-mml-node="mstyle" transform="translate(13325.6,0)"><g data-mml-node="mspace"></g></g><g data-mml-node="mo" transform="translate(13881.3,0)"><path data-c="27F6" d="M84 237T84 250T98 270H1444Q1328 357 1301 493Q1301 494 1301 496T1300 499Q1300 511 1317 511H1320Q1329 511 1332 510T1338 506T1341 497T1344 481T1352 456Q1374 389 1425 336T1544 261Q1553 258 1553 250Q1553 244 1548 241T1524 231T1486 212Q1445 186 1415 152T1370 85T1349 35T1341 4Q1339 -6 1336 -8T1320 -11Q1300 -11 1300 0Q1300 7 1305 25Q1337 151 1444 230H98Q84 237 84 250Z"></path></g><g data-mml-node="mstyle" transform="translate(15519.3,0)"><g data-mml-node="mspace"></g></g><g data-mml-node="TeXAtom" data-mjx-texclass="ORD" transform="translate(16075.1,0)"><g data-mml-node="mi"><path data-c="72" d="M36 46H50Q89 46 97 60V68Q97 77 97 91T98 122T98 161T98 203Q98 234 98 269T98 328L97 351Q94 370 83 376T38 385H20V408Q20 431 22 431L32 432Q42 433 60 434T96 436Q112 437 131 438T160 441T171 442H174V373Q213 441 271 441H277Q322 441 343 419T364 373Q364 352 351 337T313 322Q288 322 276 338T263 372Q263 381 265 388T270 400T273 405Q271 407 250 401Q234 393 226 386Q179 341 179 207V154Q179 141 179 127T179 101T180 81T180 66V61Q181 59 183 57T188 54T193 51T200 49T207 48T216 47T225 47T235 46T245 46H276V0H267Q249 3 140 3Q37 3 28 0H20V46H36Z"></path><path data-c="65" d="M28 218Q28 273 48 318T98 391T163 433T229 448Q282 448 320 430T378 380T406 316T415 245Q415 238 408 231H126V216Q126 68 226 36Q246 30 270 30Q312 30 342 62Q359 79 369 104L379 128Q382 131 395 131H398Q415 131 415 121Q415 117 412 108Q393 53 349 21T250 -11Q155 -11 92 58T28 218ZM333 275Q322 403 238 411H236Q228 411 220 410T195 402T166 381T143 340T127 274V267H333V275Z" transform="translate(392,0)"></path><path data-c="6E" d="M41 46H55Q94 46 102 60V68Q102 77 102 91T102 122T103 161T103 203Q103 234 103 269T102 328V351Q99 370 88 376T43 385H25V408Q25 431 27 431L37 432Q47 433 65 434T102 436Q119 437 138 438T167 441T178 442H181V402Q181 364 182 364T187 369T199 384T218 402T247 421T285 437Q305 442 336 442Q450 438 463 329Q464 322 464 190V104Q464 66 466 59T477 49Q498 46 526 46H542V0H534L510 1Q487 2 460 2T422 3Q319 3 310 0H302V46H318Q379 46 379 62Q380 64 380 200Q379 335 378 343Q372 371 358 385T334 402T308 404Q263 404 229 370Q202 343 195 315T187 232V168V108Q187 78 188 68T191 55T200 49Q221 46 249 46H265V0H257L234 1Q210 2 183 2T145 3Q42 3 33 0H25V46H41Z" transform="translate(836,0)"></path><path data-c="61" d="M137 305T115 305T78 320T63 359Q63 394 97 421T218 448Q291 448 336 416T396 340Q401 326 401 309T402 194V124Q402 76 407 58T428 40Q443 40 448 56T453 109V145H493V106Q492 66 490 59Q481 29 455 12T400 -6T353 12T329 54V58L327 55Q325 52 322 49T314 40T302 29T287 17T269 6T247 -2T221 -8T190 -11Q130 -11 82 20T34 107Q34 128 41 147T68 188T116 225T194 253T304 268H318V290Q318 324 312 340Q290 411 215 411Q197 411 181 410T156 406T148 403Q170 388 170 359Q170 334 154 320ZM126 106Q126 75 150 51T209 26Q247 26 276 49T315 109Q317 116 318 175Q318 233 317 233Q309 233 296 232T251 223T193 203T147 166T126 106Z" transform="translate(1392,0)"></path><path data-c="6D" d="M41 46H55Q94 46 102 60V68Q102 77 102 91T102 122T103 161T103 203Q103 234 103 269T102 328V351Q99 370 88 376T43 385H25V408Q25 431 27 431L37 432Q47 433 65 434T102 436Q119 437 138 438T167 441T178 442H181V402Q181 364 182 364T187 369T199 384T218 402T247 421T285 437Q305 442 336 442Q351 442 364 440T387 434T406 426T421 417T432 406T441 395T448 384T452 374T455 366L457 361L460 365Q463 369 466 373T475 384T488 397T503 410T523 422T546 432T572 439T603 442Q729 442 740 329Q741 322 741 190V104Q741 66 743 59T754 49Q775 46 803 46H819V0H811L788 1Q764 2 737 2T699 3Q596 3 587 0H579V46H595Q656 46 656 62Q657 64 657 200Q656 335 655 343Q649 371 635 385T611 402T585 404Q540 404 506 370Q479 343 472 315T464 232V168V108Q464 78 465 68T468 55T477 49Q498 46 526 46H542V0H534L510 1Q487 2 460 2T422 3Q319 3 310 0H302V46H318Q379 46 379 62Q380 64 380 200Q379 335 378 343Q372 371 358 385T334 402T308 404Q263 404 229 370Q202 343 195 315T187 232V168V108Q187 78 188 68T191 55T200 49Q221 46 249 46H265V0H257L234 1Q210 2 183 2T145 3Q42 3 33 0H25V46H41Z" transform="translate(1892,0)"></path><path data-c="65" d="M28 218Q28 273 48 318T98 391T163 433T229 448Q282 448 320 430T378 380T406 316T415 245Q415 238 408 231H126V216Q126 68 226 36Q246 30 270 30Q312 30 342 62Q359 79 369 104L379 128Q382 131 395 131H398Q415 131 415 121Q415 117 412 108Q393 53 349 21T250 -11Q155 -11 92 58T28 218ZM333 275Q322 403 238 411H236Q228 411 220 410T195 402T166 381T143 340T127 274V267H333V275Z" transform="translate(2725,0)"></path></g></g><g data-mml-node="mo" transform="translate(19244.1,0)"><path data-c="28" d="M94 250Q94 319 104 381T127 488T164 576T202 643T244 695T277 729T302 750H315H319Q333 750 333 741Q333 738 316 720T275 667T226 581T184 443T167 250T184 58T225 -81T274 -167T316 -220T333 -241Q333 -250 318 -250H315H302L274 -226Q180 -141 137 -14T94 250Z"></path></g><g data-mml-node="TeXAtom" data-mjx-texclass="ORD" transform="translate(19633.1,0)"><g data-mml-node="mi"><path data-c="74" d="M94 385Q87 392 87 395Q87 399 90 411T95 425Q97 430 103 430T149 431H196L215 511Q218 521 222 539T228 565T234 585T242 603T251 615T264 623T281 626Q311 626 315 597Q315 591 296 513T275 433Q275 431 320 431H366Q373 424 373 420Q373 398 360 385H263L189 86Q188 80 188 61V54Q188 29 201 27Q213 23 229 30Q253 37 276 66T316 138Q321 149 324 151T342 153H347Q364 153 364 146T360 130Q331 63 290 26T202 -11Q158 -11 135 18T111 81Q111 93 129 168T166 314L184 383Q184 385 139 385H94Z"></path><path data-c="6D" d="M81 278Q75 284 75 289Q77 299 89 338Q101 373 114 396T142 428T166 439T186 442H189Q225 440 251 417Q266 401 271 384L275 374L286 386Q342 442 414 442Q428 442 440 440T461 435T479 427T493 418T503 407T511 397T516 387T520 378T523 370L524 366Q546 395 583 418T667 442Q729 442 755 411T782 338Q782 290 743 178T704 45Q704 26 720 26Q773 26 802 136Q805 148 807 150T822 153H828Q838 153 841 153T848 150T851 143Q851 137 843 115T821 63T778 12T715 -10Q671 -10 652 16T632 71Q632 88 668 191T704 349Q704 367 703 372Q693 405 664 405Q637 405 613 393T571 360T547 329T534 309Q523 290 518 274T487 151Q455 24 452 16Q438 -11 408 -11T376 18Q376 26 411 167T447 314Q449 325 449 346Q449 372 444 384Q431 405 408 405Q334 405 276 305Q266 289 262 273T231 151Q199 24 196 16Q182 -11 152 -11T120 18Q120 26 159 182T200 347Q202 361 202 372Q202 405 181 405Q168 405 159 391Q145 374 132 328T117 280T98 278H81Z" transform="translate(332,0)"></path><path data-c="70" d="M81 278Q75 284 75 287Q93 379 131 417Q154 442 189 442Q222 440 243 423T272 382L280 390Q335 442 389 442Q446 442 482 398T518 284Q518 212 480 137T375 19Q321 -10 291 -10H282H278Q237 -10 204 28L202 32L181 -51Q160 -135 160 -139Q160 -147 205 -148H230Q236 -155 236 -157T233 -175Q230 -187 227 -190T214 -194Q211 -194 202 -194T169 -193T108 -192Q40 -192 21 -194H13Q6 -187 6 -183T9 -167Q13 -153 16 -151T39 -148Q73 -147 78 -136Q82 -128 139 104Q199 337 199 347Q202 362 202 372Q202 406 182 406Q169 406 159 391Q145 374 132 328T117 280T98 278H81ZM221 111Q234 26 286 26Q307 26 336 47T385 116Q398 147 416 217T435 332Q435 354 433 361Q420 405 383 405Q333 405 279 326L273 317L221 111Z" transform="translate(1150,0)"></path></g></g><g data-mml-node="mo" transform="translate(21294.1,0)"><path data-c="2C" d="M78 35T78 60T94 103T137 121Q165 121 187 96T210 8Q210 -27 201 -60T180 -117T154 -158T130 -185T117 -194Q113 -194 104 -185T95 -172Q95 -168 106 -156T131 -126T157 -76T173 -3V9L172 8Q170 7 167 6T161 3T152 1T140 0Q113 0 96 17Z"></path></g><g data-mml-node="mstyle" transform="translate(21572.1,0)"><g data-mml-node="mspace"></g></g><g data-mml-node="TeXAtom" data-mjx-texclass="ORD" transform="translate(21905.8,0)"><g data-mml-node="mi"><path data-c="74" d="M94 385Q87 392 87 395Q87 399 90 411T95 425Q97 430 103 430T149 431H196L215 511Q218 521 222 539T228 565T234 585T242 603T251 615T264 623T281 626Q311 626 315 597Q315 591 296 513T275 433Q275 431 320 431H366Q373 424 373 420Q373 398 360 385H263L189 86Q188 80 188 61V54Q188 29 201 27Q213 23 229 30Q253 37 276 66T316 138Q321 149 324 151T342 153H347Q364 153 364 146T360 130Q331 63 290 26T202 -11Q158 -11 135 18T111 81Q111 93 129 168T166 314L184 383Q184 385 139 385H94Z"></path><path data-c="61" d="M418 53Q418 26 438 26Q466 26 494 131Q500 151 504 152Q507 153 516 153H521Q531 153 534 153T540 150T543 144Q543 141 540 126T529 88T509 43T477 5T434 -11Q404 -11 383 3T354 30T347 48H346Q345 47 342 45T337 40Q282 -11 228 -11Q172 -11 137 34T101 146Q101 260 177 351T333 442Q343 442 352 441T369 437T382 431T393 425T402 417T409 410T414 402T419 396Q423 406 436 414T461 422Q475 422 484 413T494 395Q494 384 459 244T420 88Q418 80 418 58V53ZM397 323Q397 344 382 374T333 405Q302 405 271 372Q249 349 235 316T203 215Q184 135 184 108V100V94Q184 54 207 35Q218 26 235 26Q279 26 330 91Q343 109 346 118T372 217Q397 317 397 323Z" transform="translate(332,0)"></path><path data-c="72" d="M81 278Q75 284 75 289Q77 301 89 339Q122 442 183 442Q219 442 241 425T271 384L283 396Q327 442 384 442Q424 442 454 421T484 362Q484 327 464 312T424 296Q407 296 396 305T385 331Q385 352 394 365T414 384T424 390Q409 405 378 405Q322 405 276 315L268 300L234 161Q200 25 196 16Q182 -11 152 -11T120 18Q120 23 159 181Q199 343 199 346Q202 360 202 372Q202 405 182 405Q164 405 150 377T128 316T117 280Q115 278 98 278H81Z" transform="translate(843,0)"></path><path data-c="67" d="M103 163Q106 263 173 347T320 441Q322 441 329 441T341 442Q387 439 419 398Q420 399 420 400Q421 402 425 406T440 416T464 422Q476 421 485 413T494 396Q494 386 465 268T407 38T377 -77Q365 -123 310 -164T179 -205Q46 -205 46 -139Q46 -114 64 -97T106 -79Q127 -79 136 -91T146 -115Q146 -127 141 -138T130 -155T124 -162T125 -163Q133 -166 170 -168Q200 -168 217 -162Q242 -153 264 -130T297 -78Q298 -74 305 -46T320 10T327 38Q326 38 317 31T291 15T256 2Q249 1 231 1Q182 1 143 38T103 163ZM398 324Q398 330 395 346T375 383T332 405Q330 405 326 405T320 404Q291 396 263 365Q230 324 208 239T185 115Q185 38 238 38Q258 38 279 50T312 77T336 106L348 122Q349 125 373 223T398 324Z" transform="translate(1265,0)"></path><path data-c="65" d="M107 166Q107 230 131 283T193 369T270 420T345 441Q346 441 352 441T361 442H364Q409 442 439 418T470 355Q470 270 366 239Q308 223 218 223H205Q189 164 189 125Q189 83 206 55T261 27Q309 27 353 50T426 109Q436 121 440 121T453 111T466 97Q469 92 455 77Q424 41 372 16T258 -10Q184 -10 146 41T107 166ZM416 333T416 354T401 390T360 405Q322 405 292 384T246 336T223 288T215 261Q215 260 240 260Q262 261 276 262T314 266T353 275T384 291T408 317Z" transform="translate(1725,0)"></path><path data-c="74" d="M94 385Q87 392 87 395Q87 399 90 411T95 425Q97 430 103 430T149 431H196L215 511Q218 521 222 539T228 565T234 585T242 603T251 615T264 623T281 626Q311 626 315 597Q315 591 296 513T275 433Q275 431 320 431H366Q373 424 373 420Q373 398 360 385H263L189 86Q188 80 188 61V54Q188 29 201 27Q213 23 229 30Q253 37 276 66T316 138Q321 149 324 151T342 153H347Q364 153 364 146T360 130Q331 63 290 26T202 -11Q158 -11 135 18T111 81Q111 93 129 168T166 314L184 383Q184 385 139 385H94Z" transform="translate(2185,0)"></path></g></g><g data-mml-node="mo" transform="translate(24422.8,0)"><path data-c="29" d="M60 749L64 750Q69 750 74 750H86L114 726Q208 641 251 514T294 250Q294 182 284 119T261 12T224 -76T186 -143T145 -194T113 -227T90 -246Q87 -249 86 -250H74Q66 -250 63 -250T58 -247T55 -238Q56 -237 66 -225Q221 -64 221 250T66 725Q56 737 55 738Q55 746 60 749Z"></path></g></g></g></svg>