<svg id="my-svg" width="100%" xmlns="http://www.w3.org/2000/svg" xmlns:xlink="http://www.w3.org/1999/xlink" class="flowchart" style="max-width: 1962.91px; background-color: #0a1628;" viewBox="-212.431640625 -52 1962.91015625 748.921875" role="graphics-document document" aria-roledescription="flowchart-v2"><defs><pattern id="bp-grid" x="-212.431640625" y="-52" width="40" height="40" patternUnits="userSpaceOnUse"><path d="M 10 0 L 10 40 M 20 0 L 20 40 M 30 0 L 30 40 M 0 10 L 40 10 M 0 20 L 40 20 M 0 30 L 40 30" fill="none" stroke="#16304f" stroke-width="0.35" opacity="0.35"/><path d="M 40 0 L 0 0 L 0 40" fill="none" stroke="#1e3a5f" stroke-width="0.75" opacity="0.55"/></pattern></defs><rect x="-212.431640625" y="-52" width="1962.91015625" height="748.921875" fill="#0a1628"/><rect x="-212.431640625" y="-52" width="1962.91015625" height="748.921875" fill="url(#bp-grid)"/><style>#my-svg{font-family:-apple-system,BlinkMacSystemFont,Segoe UI,Helvetica,Arial,sans-serif;font-size:16px;fill:#ccc;}@keyframes edge-animation-frame{from{stroke-dashoffset:0;}}@keyframes dash{to{stroke-dashoffset:0;}}#my-svg .edge-animation-slow{stroke-dasharray:9,5!important;stroke-dashoffset:900;animation:dash 50s linear infinite;stroke-linecap:round;}#my-svg .edge-animation-fast{stroke-dasharray:9,5!important;stroke-dashoffset:900;animation:dash 20s linear infinite;stroke-linecap:round;}#my-svg .error-icon{fill:#a44141;}#my-svg .error-text{fill:#ddd;stroke:#ddd;}#my-svg .edge-thickness-normal{stroke-width:1px;}#my-svg .edge-thickness-thick{stroke-width:3.5px;}#my-svg .edge-pattern-solid{stroke-dasharray:0;}#my-svg .edge-thickness-invisible{stroke-width:0;fill:none;}#my-svg .edge-pattern-dashed{stroke-dasharray:3;}#my-svg .edge-pattern-dotted{stroke-dasharray:2;}#my-svg .marker{fill:#8b949e;stroke:#8b949e;}#my-svg .marker.cross{stroke:#8b949e;}#my-svg svg{font-family:-apple-system,BlinkMacSystemFont,Segoe UI,Helvetica,Arial,sans-serif;font-size:16px;}#my-svg p{margin:0;}#my-svg .label{font-family:-apple-system,BlinkMacSystemFont,Segoe UI,Helvetica,Arial,sans-serif;color:#ccc;}#my-svg .cluster-label text{fill:#F9FFFE;}#my-svg .cluster-label span{color:#F9FFFE;}#my-svg .cluster-label span p{background-color:transparent;}#my-svg .label text,#my-svg span{fill:#ccc;color:#ccc;}#my-svg .node rect,#my-svg .node circle,#my-svg .node ellipse,#my-svg .node polygon,#my-svg .node path{fill:#1f2020;stroke:#ccc;stroke-width:1px;}#my-svg .rough-node .label text,#my-svg .node .label text,#my-svg .image-shape .label,#my-svg .icon-shape .label{text-anchor:middle;}#my-svg .node .katex path{fill:#000;stroke:#000;stroke-width:1px;}#my-svg .rough-node .label,#my-svg .node .label,#my-svg .image-shape .label,#my-svg .icon-shape .label{text-align:center;}#my-svg .node.clickable{cursor:pointer;}#my-svg .root .anchor path{fill:#8b949e!important;stroke-width:0;stroke:#8b949e;}#my-svg .arrowheadPath{fill:lightgrey;}#my-svg .edgePath .path{stroke:#8b949e;stroke-width:1px;}#my-svg .flowchart-link{stroke:#8b949e;fill:none;}#my-svg .edgeLabel{background-color:hsl(0, 0%, 34.4117647059%);text-align:center;}#my-svg .edgeLabel p{background-color:hsl(0, 0%, 34.4117647059%);}#my-svg .edgeLabel rect{opacity:0.5;background-color:hsl(0, 0%, 34.4117647059%);fill:hsl(0, 0%, 34.4117647059%);}#my-svg .labelBkg{background-color:rgba(87.75, 87.75, 87.75, 0.5);}#my-svg .cluster rect{fill:hsl(180, 1.5873015873%, 28.3529411765%);stroke:rgba(255, 255, 255, 0.25);stroke-width:1px;}#my-svg .cluster text{fill:#F9FFFE;}#my-svg .cluster span{color:#F9FFFE;}#my-svg div.mermaidTooltip{position:absolute;text-align:center;max-width:200px;padding:2px;font-family:-apple-system,BlinkMacSystemFont,Segoe UI,Helvetica,Arial,sans-serif;font-size:12px;background:#0d1117;border:1px solid rgba(255, 255, 255, 0.25);border-radius:2px;pointer-events:none;z-index:100;}#my-svg .flowchartTitleText{text-anchor:middle;font-size:18px;fill:#ccc;}#my-svg rect.text{fill:none;stroke-width:0;}#my-svg .icon-shape,#my-svg .image-shape{background-color:hsl(0, 0%, 34.4117647059%);text-align:center;}#my-svg .icon-shape p,#my-svg .image-shape p{background-color:hsl(0, 0%, 34.4117647059%);padding:2px;}#my-svg .icon-shape .label rect,#my-svg .image-shape .label rect{opacity:0.5;background-color:hsl(0, 0%, 34.4117647059%);fill:hsl(0, 0%, 34.4117647059%);}#my-svg .label-icon{display:inline-block;height:1em;overflow:visible;vertical-align:-0.125em;}#my-svg .node .label-icon path{fill:currentColor;stroke:revert;stroke-width:revert;}#my-svg .node .neo-node{stroke:#ccc;}#my-svg [data-look="neo"].node rect,#my-svg [data-look="neo"].cluster rect,#my-svg [data-look="neo"].node polygon{stroke:url(#my-svg-gradient);filter:drop-shadow( 1px 2px 2px rgba(185,185,185,1));}#my-svg [data-look="neo"].node path{stroke:url(#my-svg-gradient);stroke-width:1px;}#my-svg [data-look="neo"].node .outer-path{filter:drop-shadow( 1px 2px 2px rgba(185,185,185,1));}#my-svg [data-look="neo"].node .neo-line path{stroke:#ccc;filter:none;}#my-svg [data-look="neo"].node circle{stroke:url(#my-svg-gradient);filter:drop-shadow( 1px 2px 2px rgba(185,185,185,1));}#my-svg [data-look="neo"].node circle .state-start{fill:#000000;}#my-svg [data-look="neo"].icon-shape .icon{fill:url(#my-svg-gradient);filter:drop-shadow( 1px 2px 2px rgba(185,185,185,1));}#my-svg [data-look="neo"].icon-shape .icon-neo path{stroke:url(#my-svg-gradient);filter:drop-shadow( 1px 2px 2px rgba(185,185,185,1));}#my-svg :root{--mermaid-font-family:"trebuchet ms",verdana,arial,sans-serif;}#my-svg .titleBlock&gt;*{fill:#06111f!important;stroke:#1e3a5f!important;stroke-width:1px!important;color:#e6edf3!important;rx:4!important;ry:4!important;}#my-svg .titleBlock span{fill:#06111f!important;stroke:#1e3a5f!important;stroke-width:1px!important;color:#e6edf3!important;rx:4!important;ry:4!important;}#my-svg .titleBlock tspan{fill:#e6edf3!important;}#my-svg .toolNode&gt;*{fill:#0a1628!important;stroke:#1e3a5f!important;stroke-width:1.5px!important;color:#e6edf3!important;rx:8!important;ry:8!important;}#my-svg .toolNode span{fill:#0a1628!important;stroke:#1e3a5f!important;stroke-width:1.5px!important;color:#e6edf3!important;rx:8!important;ry:8!important;}#my-svg .toolNode tspan{fill:#e6edf3!important;}#my-svg .journalLine&gt;*{fill:#0a1628!important;stroke:#1e3a5f!important;stroke-width:1px!important;color:#c9d1d9!important;rx:6!important;ry:6!important;}#my-svg .journalLine span{fill:#0a1628!important;stroke:#1e3a5f!important;stroke-width:1px!important;color:#c9d1d9!important;rx:6!important;ry:6!important;}#my-svg .journalLine tspan{fill:#c9d1d9!important;}#my-svg .reportNode&gt;*{fill:#0f1d33!important;stroke:#3fb950!important;stroke-width:2px!important;color:#3fb950!important;rx:10!important;ry:10!important;}#my-svg .reportNode span{fill:#0f1d33!important;stroke:#3fb950!important;stroke-width:2px!important;color:#3fb950!important;rx:10!important;ry:10!important;}#my-svg .reportNode tspan{fill:#3fb950!important;}</style><g><marker id="my-svg_flowchart-v2-pointEnd" class="marker flowchart-v2" viewBox="0 0 10 10" refX="5" refY="5" markerUnits="userSpaceOnUse" markerWidth="8" markerHeight="8" orient="auto"><path d="M 0 0 L 10 5 L 0 10 z" class="arrowMarkerPath" style="stroke-width: 1; stroke-dasharray: 1, 0;"/></marker><marker id="my-svg_flowchart-v2-pointStart" class="marker flowchart-v2" viewBox="0 0 10 10" refX="4.5" refY="5" markerUnits="userSpaceOnUse" markerWidth="8" markerHeight="8" orient="auto"><path d="M 0 5 L 10 10 L 10 0 z" class="arrowMarkerPath" style="stroke-width: 1; stroke-dasharray: 1, 0;"/></marker><marker id="my-svg_flowchart-v2-pointEnd-margin" class="marker flowchart-v2" viewBox="0 0 11.5 14" refX="11.5" refY="7" markerUnits="userSpaceOnUse" markerWidth="10.5" markerHeight="14" orient="auto"><path d="M 0 0 L 11.5 7 L 0 14 z" class="arrowMarkerPath" style="stroke-width: 0; stroke-dasharray: 1, 0;"/></marker><marker id="my-svg_flowchart-v2-pointStart-margin" class="marker flowchart-v2" viewBox="0 0 11.5 14" refX="1" refY="7" markerUnits="userSpaceOnUse" markerWidth="11.5" markerHeight="14" orient="auto"><polygon points="0,7 11.5,14 11.5,0" class="arrowMarkerPath" style="stroke-width: 0; stroke-dasharray: 1, 0;"/></marker><marker id="my-svg_flowchart-v2-circleEnd" class="marker flowchart-v2" viewBox="0 0 10 10" refX="11" refY="5" markerUnits="userSpaceOnUse" markerWidth="11" markerHeight="11" orient="auto"><circle cx="5" cy="5" r="5" class="arrowMarkerPath" style="stroke-width: 1; stroke-dasharray: 1, 0;"/></marker><marker id="my-svg_flowchart-v2-circleStart" class="marker flowchart-v2" viewBox="0 0 10 10" refX="-1" refY="5" markerUnits="userSpaceOnUse" markerWidth="11" markerHeight="11" orient="auto"><circle cx="5" cy="5" r="5" class="arrowMarkerPath" style="stroke-width: 1; stroke-dasharray: 1, 0;"/></marker><marker id="my-svg_flowchart-v2-circleEnd-margin" class="marker flowchart-v2" viewBox="0 0 10 10" refY="5" refX="12.25" markerUnits="userSpaceOnUse" markerWidth="14" markerHeight="14" orient="auto"><circle cx="5" cy="5" r="5" class="arrowMarkerPath" style="stroke-width: 0; stroke-dasharray: 1, 0;"/></marker><marker id="my-svg_flowchart-v2-circleStart-margin" class="marker flowchart-v2" viewBox="0 0 10 10" refX="-2" refY="5" markerUnits="userSpaceOnUse" markerWidth="14" markerHeight="14" orient="auto"><circle cx="5" cy="5" r="5" class="arrowMarkerPath" style="stroke-width: 0; stroke-dasharray: 1, 0;"/></marker><marker id="my-svg_flowchart-v2-crossEnd" class="marker cross flowchart-v2" viewBox="0 0 11 11" refX="12" refY="5.2" markerUnits="userSpaceOnUse" markerWidth="11" markerHeight="11" orient="auto"><path d="M 1,1 l 9,9 M 10,1 l -9,9" class="arrowMarkerPath" style="stroke-width: 2; stroke-dasharray: 1, 0;"/></marker><marker id="my-svg_flowchart-v2-crossStart" class="marker cross flowchart-v2" viewBox="0 0 11 11" refX="-1" refY="5.2" markerUnits="userSpaceOnUse" markerWidth="11" markerHeight="11" orient="auto"><path d="M 1,1 l 9,9 M 10,1 l -9,9" class="arrowMarkerPath" style="stroke-width: 2; stroke-dasharray: 1, 0;"/></marker><marker id="my-svg_flowchart-v2-crossEnd-margin" class="marker cross flowchart-v2" viewBox="0 0 15 15" refX="17.7" refY="7.5" markerUnits="userSpaceOnUse" markerWidth="12" markerHeight="12" orient="auto"><path d="M 1,1 L 14,14 M 1,14 L 14,1" class="arrowMarkerPath" style="stroke-width: 2.5;"/></marker><marker id="my-svg_flowchart-v2-crossStart-margin" class="marker cross flowchart-v2" viewBox="0 0 15 15" refX="-3.5" refY="7.5" markerUnits="userSpaceOnUse" markerWidth="12" markerHeight="12" orient="auto"><path d="M 1,1 L 14,14 M 1,14 L 14,1" class="arrowMarkerPath" style="stroke-width: 2.5; stroke-dasharray: 1, 0;"/></marker><g class="root"><g class="clusters"><g class="cluster" id="my-svg-sk_state" data-look="neo"><rect style="fill:#0f1d33 !important;stroke:#d29922 !important;stroke-width:2px !important;rx:12 !important;ry:12 !important" x="347.703125" y="304.796875" width="908" height="221.75"/><g class="cluster-label" transform="translate(351.703125, 318.796875)"><foreignObject width="900" height="32"><div xmlns="http://www.w3.org/1999/xhtml" style="display: table-cell; white-space: nowrap; line-height: 1.5;"><span class="nodeLabel" style="color:#e6edf3 !important"><p></p><div style="text-align:center;min-width:900px;line-height:2"><span style="font-family:ui-monospace,monospace;color:&amp;8b949e;font-size:11px;letter-spacing:3px">JOURNAL 03</span>  ·  <b style="letter-spacing:2px">state-keeper / state /</b></div><p></p></span></div></foreignObject></g></g><g class="cluster" id="my-svg-cg_state" data-look="neo"><rect style="fill:#0f1d33 !important;stroke:#3fb950 !important;stroke-width:2px !important;rx:12 !important;ry:12 !important" x="-204.431640625" y="304.796875" width="908" height="384.125"/><g class="cluster-label" transform="translate(-200.431640625, 318.796875)"><foreignObject width="900" height="32"><div xmlns="http://www.w3.org/1999/xhtml" style="display: table-cell; white-space: nowrap; line-height: 1.5;"><span class="nodeLabel" style="color:#e6edf3 !important"><p></p><div style="text-align:center;min-width:900px;line-height:2"><span style="font-family:ui-monospace,monospace;color:&amp;8b949e;font-size:11px;letter-spacing:3px">JOURNAL 02</span>  ·  <b style="letter-spacing:2px">context-guard / state /</b></div><p></p></span></div></foreignObject></g></g><g class="cluster" id="my-svg-ts_state" data-look="neo"><rect style="fill:#0f1d33 !important;stroke:#58a6ff !important;stroke-width:2px !important;rx:12 !important;ry:12 !important" x="834.478515625" y="304.796875" width="908" height="221.75"/><g class="cluster-label" transform="translate(838.478515625, 318.796875)"><foreignObject width="900" height="32"><div xmlns="http://www.w3.org/1999/xhtml" style="display: table-cell; white-space: nowrap; line-height: 1.5;"><span class="nodeLabel" style="color:#e6edf3 !important"><p></p><div style="text-align:center;min-width:900px;line-height:2"><span style="font-family:ui-monospace,monospace;color:&amp;8b949e;font-size:11px;letter-spacing:3px">JOURNAL 01</span>  ·  <b style="letter-spacing:2px">token-saver / state /</b></div><p></p></span></div></foreignObject></g></g><g class="cluster" id="my-svg-tools" data-look="neo"><rect style="fill:#06111f !important;stroke:#1e3a5f !important;stroke-width:1px !important;rx:4 !important;ry:4 !important" x="8" y="148.796875" width="1347.34765625" height="134"/><g class="cluster-label" transform="translate(231.673828125, 162.796875)"><foreignObject width="900" height="16.5"><div xmlns="http://www.w3.org/1999/xhtml" style="display: table-cell; white-space: nowrap; line-height: 1.5;"><span class="nodeLabel" style="color:#8b949e !important"><p></p><div style="text-align:center;min-width:900px;font-family:ui-monospace,monospace;color:&amp;8b949e;font-size:11px;letter-spacing:3px">TOOL CALLS  ·  EVENT SOURCES</div><p></p></span></div></foreignObject></g></g></g><g class="edgePaths"><path d="M926.461,236.03L988.646,243.825C1050.832,251.619,1175.203,267.208,1237.389,279.502C1299.574,291.797,1299.574,300.797,1299.574,309.797C1299.574,318.797,1299.574,327.797,1299.17,336.134C1298.765,344.471,1297.957,352.145,1297.552,355.982L1297.148,359.819" id="my-svg-L_Bash_ts_m_0" class="edge-thickness-normal edge-pattern-solid edge-thickness-normal edge-pattern-solid flowchart-link" style="stroke-dasharray: 0 0 434.0923156738281 4; stroke-dashoffset: 0;stroke:#8b949e;stroke-width:1.5px;;;stroke:#8b949e;stroke-width:1.5px" data-edge="true" data-et="edge" data-id="L_Bash_ts_m_0" data-points="W3sieCI6OTI2LjQ2MDkzNzUsInkiOjIzNi4wMzAxMDU2MDk3MTc0NX0seyJ4IjoxMjk5LjU3NDIxODc1LCJ5IjoyODIuNzk2ODc1fSx7IngiOjEyOTkuNTc0MjE4NzUsInkiOjMwOS43OTY4NzV9LHsieCI6MTI5OS41NzQyMTg3NSwieSI6MzM2Ljc5Njg3NX0seyJ4IjoxMjk2LjcyODM2ODk0NzYyODUsInkiOjM2My43OTY4NzV9XQ==" data-look="neo" marker-end="url(#my-svg_flowchart-v2-pointEnd-margin__8b949e)"/><path d="M814.914,235.693L884.659,243.543C954.404,251.394,1093.893,267.095,1163.638,279.446C1233.383,291.797,1233.383,300.797,1233.383,309.797C1233.383,318.797,1233.383,327.797,1235.708,336.223C1238.034,344.65,1242.685,352.502,1245.01,356.429L1247.336,360.355" id="my-svg-L_Read_ts_m_0" class="edge-thickness-normal edge-pattern-solid edge-thickness-normal edge-pattern-solid flowchart-link" style="stroke-dasharray: 0 0 481.95477294921875 4; stroke-dashoffset: 0;stroke:#8b949e;stroke-width:1.5px;;;stroke:#8b949e;stroke-width:1.5px" data-edge="true" data-et="edge" data-id="L_Read_ts_m_0" data-points="W3sieCI6ODE0LjkxNDA2MjUsInkiOjIzNS42OTI2MjI4MzU5ODMwM30seyJ4IjoxMjMzLjM4MjgxMjUsInkiOjI4Mi43OTY4NzV9LHsieCI6MTIzMy4zODI4MTI1LCJ5IjozMDkuNzk2ODc1fSx7IngiOjEyMzMuMzgyODEyNSwieSI6MzM2Ljc5Njg3NX0seyJ4IjoxMjQ5LjM3NDA0MjczNzE1NDIsInkiOjM2My43OTY4NzV9XQ==" data-look="neo" marker-end="url(#my-svg_flowchart-v2-pointEnd-margin__8b949e)"/><path d="M858.914,235.249L781.389,243.174C703.865,251.098,548.815,266.948,471.29,279.372C393.766,291.797,393.766,300.797,393.766,309.797C393.766,318.797,393.766,327.797,381.437,340.945C369.109,354.094,344.452,371.39,332.123,380.039L319.795,388.687" id="my-svg-L_Bash_cg_m_0" class="edge-thickness-normal edge-pattern-solid edge-thickness-normal edge-pattern-solid flowchart-link" style="stroke-dasharray: 0 0 587.0748901367188 4; stroke-dashoffset: 0;stroke:#8b949e;stroke-width:1.5px;;;stroke:#8b949e;stroke-width:1.5px" data-edge="true" data-et="edge" data-id="L_Bash_cg_m_0" data-points="W3sieCI6ODU4LjkxNDA2MjUsInkiOjIzNS4yNDkyMDk3MjE3NDM3N30seyJ4IjozOTMuNzY1NjI1LCJ5IjoyODIuNzk2ODc1fSx7IngiOjM5My43NjU2MjUsInkiOjMwOS43OTY4NzV9LHsieCI6MzkzLjc2NTYyNSwieSI6MzM2Ljc5Njg3NX0seyJ4IjozMTYuNTIwMzI2Mzk1NzUxLCJ5IjozOTAuOTg0Mzc1fV0=" data-look="neo" marker-end="url(#my-svg_flowchart-v2-pointEnd-margin__8b949e)"/><path d="M745.695,235.696L676.008,243.546C606.322,251.396,466.948,267.096,397.261,279.447C327.574,291.797,327.574,300.797,327.574,309.797C327.574,318.797,327.574,327.797,321.393,340.789C315.212,353.781,302.85,370.766,296.669,379.258L290.488,387.75" id="my-svg-L_Read_cg_m_0" class="edge-thickness-normal edge-pattern-solid edge-thickness-normal edge-pattern-solid flowchart-link" style="stroke-dasharray: 0 0 516.3483276367188 4; stroke-dashoffset: 0;stroke:#8b949e;stroke-width:1.5px;;;stroke:#8b949e;stroke-width:1.5px" data-edge="true" data-et="edge" data-id="L_Read_cg_m_0" data-points="W3sieCI6NzQ1LjY5NTMxMjUsInkiOjIzNS42OTU2MTQ0MTk2NjcxMn0seyJ4IjozMjcuNTc0MjE4NzUsInkiOjI4Mi43OTY4NzV9LHsieCI6MzI3LjU3NDIxODc1LCJ5IjozMDkuNzk2ODc1fSx7IngiOjMyNy41NzQyMTg3NSwieSI6MzM2Ljc5Njg3NX0seyJ4IjoyODguMTMzODkzMjgwNjMyNDQsInkiOjM5MC45ODQzNzV9XQ==" data-look="neo" marker-end="url(#my-svg_flowchart-v2-pointEnd-margin__8b949e)"/><path d="M263.313,255.797L263.313,260.297C263.313,264.797,263.313,273.797,263.313,282.797C263.313,291.797,263.313,300.797,263.313,309.797C263.313,318.797,263.313,327.797,262.89,340.662C262.467,353.528,261.622,370.259,261.199,378.624L260.777,386.989" id="my-svg-L_Write_cg_m_0" class="edge-thickness-normal edge-pattern-solid edge-thickness-normal edge-pattern-solid flowchart-link" style="stroke-dasharray: 0 0 127.245361328125 4; stroke-dashoffset: 0;stroke:#8b949e;stroke-width:1.5px;;;stroke:#8b949e;stroke-width:1.5px" data-edge="true" data-et="edge" data-id="L_Write_cg_m_0" data-points="W3sieCI6MjYzLjMxMjUsInkiOjI1NS43OTY4NzV9LHsieCI6MjYzLjMxMjUsInkiOjI4Mi43OTY4NzV9LHsieCI6MjYzLjMxMjUsInkiOjMwOS43OTY4NzV9LHsieCI6MjYzLjMxMjUsInkiOjMzNi43OTY4NzV9LHsieCI6MjYwLjU3NTAxMzg5NTc1MSwieSI6MzkwLjk4NDM3NX1d" data-look="neo" marker-end="url(#my-svg_flowchart-v2-pointEnd-margin__8b949e)"/><path d="M99.906,255.797L99.906,260.297C99.906,264.797,99.906,273.797,99.906,282.797C99.906,291.797,99.906,300.797,99.906,309.797C99.906,318.797,99.906,327.797,114.433,340.986C128.959,354.175,158.012,371.553,172.538,380.242L187.065,388.931" id="my-svg-L_Search_cg_m_0" class="edge-thickness-normal edge-pattern-solid edge-thickness-normal edge-pattern-solid flowchart-link" style="stroke-dasharray: 0 0 172.93637084960938 4; stroke-dashoffset: 0;stroke:#8b949e;stroke-width:1.5px;;;stroke:#8b949e;stroke-width:1.5px" data-edge="true" data-et="edge" data-id="L_Search_cg_m_0" data-points="W3sieCI6OTkuOTA2MjUsInkiOjI1NS43OTY4NzV9LHsieCI6OTkuOTA2MjUsInkiOjI4Mi43OTY4NzV9LHsieCI6OTkuOTA2MjUsInkiOjMwOS43OTY4NzV9LHsieCI6OTkuOTA2MjUsInkiOjMzNi43OTY4NzV9LHsieCI6MTkwLjQ5NzYzMDAwMjQ3MDM3LCJ5IjozOTAuOTg0Mzc1fV0=" data-look="neo" marker-end="url(#my-svg_flowchart-v2-pointEnd-margin__8b949e)"/><path d="M236.666,472.359L231.816,481.391C226.965,490.422,217.264,508.484,212.413,522.016C207.563,535.547,207.563,544.547,207.563,552.88C207.563,561.214,207.563,568.88,207.563,572.714L207.563,576.547" id="my-svg-L_cg_m_cg_l_0" class="edge-thickness-normal edge-pattern-solid edge-thickness-normal edge-pattern-solid flowchart-link" style="stroke-dasharray: 0 0 106.4123306274414 4; stroke-dashoffset: 0;stroke:#8b949e;stroke-width:1.5px;;;stroke:#8b949e;stroke-width:1.5px" data-edge="true" data-et="edge" data-id="L_cg_m_cg_l_0" data-points="W3sieCI6MjM2LjY2NjQxNzA1NzgwNjMsInkiOjQ3Mi4zNTkzNzV9LHsieCI6MjA3LjU2MjUsInkiOjUyNi41NDY4NzV9LHsieCI6MjA3LjU2MjUsInkiOjU1My41NDY4NzV9LHsieCI6MjA3LjU2MjUsInkiOjU4MC41NDY4NzV9XQ==" data-look="neo" marker-end="url(#my-svg_flowchart-v2-pointEnd-margin__8b949e)"/><path d="M312.232,472.359L324.154,481.391C336.076,490.422,359.921,508.484,371.843,522.016C383.766,535.547,383.766,544.547,478.148,558.917C572.53,573.286,761.294,593.025,855.677,602.895L950.059,612.765" id="my-svg-L_cg_m_report_0" class="edge-thickness-normal edge-pattern-solid edge-thickness-normal edge-pattern-solid flowchart-link" style="stroke-dasharray: 0 0 664.0919799804688 4; stroke-dashoffset: 0;stroke:#8b949e;stroke-width:1.5px;;;stroke:#8b949e;stroke-width:1.5px" data-edge="true" data-et="edge" data-id="L_cg_m_report_0" data-points="W3sieCI6MzEyLjIzMTc4ODg0NjM0MzksInkiOjQ3Mi4zNTkzNzV9LHsieCI6MzgzLjc2NTYyNSwieSI6NTI2LjU0Njg3NX0seyJ4IjozODMuNzY1NjI1LCJ5Ijo1NTMuNTQ2ODc1fSx7IngiOjk1NC4wMzcxMjM5NzEyOTg4LCJ5Ijo2MTMuMTgwODAyNDkyNjYxfV0=" data-look="neo" marker-end="url(#my-svg_flowchart-v2-pointEnd-margin__8b949e)"/><path d="M1289.574,499.547L1289.574,504.047C1289.574,508.547,1289.574,517.547,1289.574,526.547C1289.574,535.547,1289.574,544.547,1260.867,556.812C1232.159,569.077,1174.744,584.606,1146.037,592.371L1117.329,600.136" id="my-svg-L_ts_m_report_0" class="edge-thickness-normal edge-pattern-solid edge-thickness-normal edge-pattern-solid flowchart-link" style="stroke-dasharray: 0 0 217.97698974609375 4; stroke-dashoffset: 0;stroke:#8b949e;stroke-width:1.5px;;;stroke:#8b949e;stroke-width:1.5px" data-edge="true" data-et="edge" data-id="L_ts_m_report_0" data-points="W3sieCI6MTI4OS41NzQyMTg3NSwieSI6NDk5LjU0Njg3NX0seyJ4IjoxMjg5LjU3NDIxODc1LCJ5Ijo1MjYuNTQ2ODc1fSx7IngiOjEyODkuNTc0MjE4NzUsInkiOjU1My41NDY4NzV9LHsieCI6MTExMy40Njc3MzQyMTAxNzM0LCJ5Ijo2MDEuMTgwMzgxMzA4NzE3Nn1d" data-look="neo" marker-end="url(#my-svg_flowchart-v2-pointEnd-margin__8b949e)"/><path d="M1008.969,472.359L1008.969,481.391C1008.969,490.422,1008.969,508.484,1008.969,522.016C1008.969,535.547,1008.969,544.547,1010.906,553.794C1012.843,563.042,1016.716,572.536,1018.653,577.283L1020.59,582.031" id="my-svg-L_sk_m_report_0" class="edge-thickness-normal edge-pattern-solid edge-thickness-normal edge-pattern-solid flowchart-link" style="stroke-dasharray: 0 0 107.44992065429688 4; stroke-dashoffset: 0;stroke:#8b949e;stroke-width:1.5px;;;stroke:#8b949e;stroke-width:1.5px" data-edge="true" data-et="edge" data-id="L_sk_m_report_0" data-points="W3sieCI6MTAwOC45Njg3NSwieSI6NDcyLjM1OTM3NX0seyJ4IjoxMDA4Ljk2ODc1LCJ5Ijo1MjYuNTQ2ODc1fSx7IngiOjEwMDguOTY4NzUsInkiOjU1My41NDY4NzV9LHsieCI6MTAyMi4xMDEzMjQ0NDU5ODMzLCJ5Ijo1ODUuNzM0Mzc1fV0=" data-look="neo" marker-end="url(#my-svg_flowchart-v2-pointEnd-margin__8b949e)"/><path d="M892.688,126.797Z" id="my-svg-L_TitleBlock_tools_0" class="edge-thickness-invisible edge-pattern-solid" style="stroke-dasharray: 0 0 0 0; stroke-dashoffset: 0;stroke:#8b949e;stroke-width:1.5px;;;stroke:#8b949e;stroke-width:1.5px" data-edge="true" data-et="edge" data-id="L_TitleBlock_tools_0" data-points="W3sieCI6ODkyLjY4NzUsInkiOjEyNi43OTY4NzV9LHsieCI6ODkyLjY4NzUsInkiOjE1My43OTY4NzV9LHsieCI6ODkyLjY4NzUsInkiOjE4MC43OTY4NzV9LHsieCI6ODkyLjY4NzUsInkiOjIwNy43OTY4NzV9XQ==" data-look="neo"/></g><g class="edgeLabels"><g class="edgeLabel"><g class="label" data-id="L_Bash_ts_m_0" transform="translate(0, 0)"><foreignObject width="0" height="0"><div xmlns="http://www.w3.org/1999/xhtml" class="labelBkg" style="display: table-cell; white-space: nowrap; line-height: 1.5; max-width: 200px; text-align: center;"><span class="edgeLabel"></span></div></foreignObject></g></g><g class="edgeLabel"><g class="label" data-id="L_Read_ts_m_0" transform="translate(0, 0)"><foreignObject width="0" height="0"><div xmlns="http://www.w3.org/1999/xhtml" class="labelBkg" style="display: table-cell; white-space: nowrap; line-height: 1.5; max-width: 200px; text-align: center;"><span class="edgeLabel"></span></div></foreignObject></g></g><g class="edgeLabel"><g class="label" data-id="L_Bash_cg_m_0" transform="translate(0, 0)"><foreignObject width="0" height="0"><div xmlns="http://www.w3.org/1999/xhtml" class="labelBkg" style="display: table-cell; white-space: nowrap; line-height: 1.5; max-width: 200px; text-align: center;"><span class="edgeLabel"></span></div></foreignObject></g></g><g class="edgeLabel"><g class="label" data-id="L_Read_cg_m_0" transform="translate(0, 0)"><foreignObject width="0" height="0"><div xmlns="http://www.w3.org/1999/xhtml" class="labelBkg" style="display: table-cell; white-space: nowrap; line-height: 1.5; max-width: 200px; text-align: center;"><span class="edgeLabel"></span></div></foreignObject></g></g><g class="edgeLabel"><g class="label" data-id="L_Write_cg_m_0" transform="translate(0, 0)"><foreignObject width="0" height="0"><div xmlns="http://www.w3.org/1999/xhtml" class="labelBkg" style="display: table-cell; white-space: nowrap; line-height: 1.5; max-width: 200px; text-align: center;"><span class="edgeLabel"></span></div></foreignObject></g></g><g class="edgeLabel"><g class="label" data-id="L_Search_cg_m_0" transform="translate(0, 0)"><foreignObject width="0" height="0"><div xmlns="http://www.w3.org/1999/xhtml" class="labelBkg" style="display: table-cell; white-space: nowrap; line-height: 1.5; max-width: 200px; text-align: center;"><span class="edgeLabel"></span></div></foreignObject></g></g><g class="edgeLabel"><g class="label" data-id="L_cg_m_cg_l_0" transform="translate(0, 0)"><foreignObject width="0" height="0"><div xmlns="http://www.w3.org/1999/xhtml" class="labelBkg" style="display: table-cell; white-space: nowrap; line-height: 1.5; max-width: 200px; text-align: center;"><span class="edgeLabel"></span></div></foreignObject></g></g><g class="edgeLabel"><g class="label" data-id="L_cg_m_report_0" transform="translate(0, 0)"><foreignObject width="0" height="0"><div xmlns="http://www.w3.org/1999/xhtml" class="labelBkg" style="display: table-cell; white-space: nowrap; line-height: 1.5; max-width: 200px; text-align: center;"><span class="edgeLabel"></span></div></foreignObject></g></g><g class="edgeLabel"><g class="label" data-id="L_ts_m_report_0" transform="translate(0, 0)"><foreignObject width="0" height="0"><div xmlns="http://www.w3.org/1999/xhtml" class="labelBkg" style="display: table-cell; white-space: nowrap; line-height: 1.5; max-width: 200px; text-align: center;"><span class="edgeLabel"></span></div></foreignObject></g></g><g class="edgeLabel"><g class="label" data-id="L_sk_m_report_0" transform="translate(0, 0)"><foreignObject width="0" height="0"><div xmlns="http://www.w3.org/1999/xhtml" class="labelBkg" style="display: table-cell; white-space: nowrap; line-height: 1.5; max-width: 200px; text-align: center;"><span class="edgeLabel"></span></div></foreignObject></g></g><g class="edgeLabel"><g class="label" data-id="L_TitleBlock_tools_0" transform="translate(0, 0)"><foreignObject width="0" height="0"><div xmlns="http://www.w3.org/1999/xhtml" class="labelBkg" style="display: table-cell; white-space: nowrap; line-height: 1.5; max-width: 200px; text-align: center;"><span class="edgeLabel"></span></div></foreignObject></g></g></g><g class="nodes"><g class="node default titleBlock" id="my-svg-flowchart-TitleBlock-0" data-look="neo" transform="translate(892.6875, 75.3984375)"><rect class="basic label-container" style="fill:#06111f !important;stroke:#1e3a5f !important;stroke-width:1px !important;rx:4 !important;ry:4 !important" x="-476" y="-51.3984375" width="952" height="102.796875"/><g class="label" style="color:#e6edf3 !important" transform="translate(-460, -39.3984375)"><rect/><foreignObject width="920" height="78.796875"><div style="color: rgb(230, 237, 243) !important; display: table; white-space: break-spaces; line-height: 1.5; max-width: 200px; text-align: center; width: 200px;" xmlns="http://www.w3.org/1999/xhtml"><span style="color:#e6edf3 !important" class="nodeLabel"><p></p><div style="font-family:ui-monospace,SFMono-Regular,Consolas,monospace;text-align:center;min-width:900px;padding:6px 10px;line-height:1.8"><div style="color:&amp;58a6ff;font-size:15px;letter-spacing:6px;border-bottom:1px solid &amp;1e3a5f;padding-bottom:10px;margin-bottom:10px">EMU  ·  STATE FLOW  ·  EVENT JOURNALS</div><div style="display:flex;gap:40px;justify-content:center;font-size:11px;color:&amp;8b949e;letter-spacing:2px"><span>DWG  <b style="color:#e6edf3">EMU-003</b></span><span>REV  <b style="color:#e6edf3">A.1</b></span><span>SCALE  <b style="color:#e6edf3">1:1</b></span><span>JOURNALS  <b style="color:#e6edf3">n = 3</b></span><span>SHEET  <b style="color:#e6edf3">01 / 01</b></span></div></div><p></p></span></div></foreignObject></g></g><g class="node default toolNode" id="my-svg-flowchart-Bash-1" data-look="neo" transform="translate(892.6875, 231.796875)"><rect class="basic label-container" style="fill:#0a1628 !important;stroke:#1e3a5f !important;stroke-width:1.5px !important;rx:8 !important;ry:8 !important" x="-33.7734375" y="-24" width="67.546875" height="48"/><g class="label" style="color:#e6edf3 !important" transform="translate(-17.7734375, -12)"><rect/><foreignObject width="35.546875" height="24"><div style="color: rgb(230, 237, 243) !important; display: table-cell; white-space: nowrap; line-height: 1.5; max-width: 200px; text-align: center;" xmlns="http://www.w3.org/1999/xhtml"><span style="color:#e6edf3 !important" class="nodeLabel"><p><b>Bash</b></p></span></div></foreignObject></g></g><g class="node default toolNode" id="my-svg-flowchart-Read-2" data-look="neo" transform="translate(780.3046875, 231.796875)"><rect class="basic label-container" style="fill:#0a1628 !important;stroke:#1e3a5f !important;stroke-width:1.5px !important;rx:8 !important;ry:8 !important" x="-34.609375" y="-24" width="69.21875" height="48"/><g class="label" style="color:#e6edf3 !important" transform="translate(-18.609375, -12)"><rect/><foreignObject width="37.21875" height="24"><div style="color: rgb(230, 237, 243) !important; display: table-cell; white-space: nowrap; line-height: 1.5; max-width: 200px; text-align: center;" xmlns="http://www.w3.org/1999/xhtml"><span style="color:#e6edf3 !important" class="nodeLabel"><p><b>Read</b></p></span></div></foreignObject></g></g><g class="node default toolNode" id="my-svg-flowchart-Write-3" data-look="neo" transform="translate(263.3125, 231.796875)"><rect class="basic label-container" style="fill:#0a1628 !important;stroke:#1e3a5f !important;stroke-width:1.5px !important;rx:8 !important;ry:8 !important" x="-59.5" y="-24" width="119" height="48"/><g class="label" style="color:#e6edf3 !important" transform="translate(-43.5, -12)"><rect/><foreignObject width="87" height="24"><div style="color: rgb(230, 237, 243) !important; display: table-cell; white-space: nowrap; line-height: 1.5; max-width: 200px; text-align: center;" xmlns="http://www.w3.org/1999/xhtml"><span style="color:#e6edf3 !important" class="nodeLabel"><p><b>Write / Edit</b></p></span></div></foreignObject></g></g><g class="node default toolNode" id="my-svg-flowchart-Search-4" data-look="neo" transform="translate(99.90625, 231.796875)"><rect class="basic label-container" style="fill:#0a1628 !important;stroke:#1e3a5f !important;stroke-width:1.5px !important;rx:8 !important;ry:8 !important" x="-59.90625" y="-24" width="119.8125" height="48"/><g class="label" style="color:#e6edf3 !important" transform="translate(-43.90625, -12)"><rect/><foreignObject width="87.8125" height="24"><div style="color: rgb(230, 237, 243) !important; display: table-cell; white-space: nowrap; line-height: 1.5; max-width: 200px; text-align: center;" xmlns="http://www.w3.org/1999/xhtml"><span style="color:#e6edf3 !important" class="nodeLabel"><p><b>Glob / Grep</b></p></span></div></foreignObject></g></g><g class="node default journalLine" id="my-svg-flowchart-ts_m-5" data-look="neo" transform="translate(1289.57421875, 431.671875)"><rect class="basic label-container" style="fill:#0a1628 !important;stroke:#1e3a5f !important;stroke-width:1px !important;rx:6 !important;ry:6 !important" x="-116" y="-67.875" width="232" height="135.75"/><g class="label" style="color:#c9d1d9 !important" transform="translate(-100, -55.875)"><rect/><foreignObject width="200" height="111.75"><div style="color: rgb(201, 209, 217) !important; display: table; white-space: break-spaces; line-height: 1.5; max-width: 200px; text-align: center; width: 200px;" xmlns="http://www.w3.org/1999/xhtml"><span style="color:#c9d1d9 !important" class="nodeLabel"><p></p><div style="text-align:center;line-height:1.7"><code>metrics.jsonl</code><br /><small style="color:#6e7681">bash_compressed · duplicate_blocked · delta_read · result_aged</small></div><p></p></span></div></foreignObject></g></g><g class="node default journalLine" id="my-svg-flowchart-cg_m-6" data-look="neo" transform="translate(258.51953125, 431.671875)"><rect class="basic label-container" style="fill:#0a1628 !important;stroke:#1e3a5f !important;stroke-width:1px !important;rx:6 !important;ry:6 !important" x="-108.515625" y="-40.6875" width="217.03125" height="81.375"/><g class="label" style="color:#c9d1d9 !important" transform="translate(-92.515625, -28.6875)"><rect/><foreignObject width="185.03125" height="57.375"><div style="color: rgb(201, 209, 217) !important; display: table-cell; white-space: nowrap; line-height: 1.5; max-width: 200px; text-align: center;" xmlns="http://www.w3.org/1999/xhtml"><span style="color:#c9d1d9 !important" class="nodeLabel"><p></p><div style="text-align:center;line-height:1.7"><code>metrics.jsonl</code><br /><small style="color:#6e7681">turn (token est.) · drift_detected</small></div><p></p></span></div></foreignObject></g></g><g class="node default journalLine" id="my-svg-flowchart-cg_l-7" data-look="neo" transform="translate(207.5625, 621.234375)"><rect class="basic label-container" style="fill:#0a1628 !important;stroke:#1e3a5f !important;stroke-width:1px !important;rx:6 !important;ry:6 !important" x="-109.4921875" y="-40.6875" width="218.984375" height="81.375"/><g class="label" style="color:#c9d1d9 !important" transform="translate(-93.4921875, -28.6875)"><rect/><foreignObject width="186.984375" height="57.375"><div style="color: rgb(201, 209, 217) !important; display: table-cell; white-space: nowrap; line-height: 1.5; max-width: 200px; text-align: center;" xmlns="http://www.w3.org/1999/xhtml"><span style="color:#c9d1d9 !important" class="nodeLabel"><p></p><div style="text-align:center;line-height:1.7"><code>learnings.json</code><br /><small style="color:#6e7681">cross-session strategy rates · A7</small></div><p></p></span></div></foreignObject></g></g><g class="node default journalLine" id="my-svg-flowchart-sk_c-8" data-look="neo" transform="translate(608.1171875, 431.671875)"><rect class="basic label-container" style="fill:#0a1628 !important;stroke:#1e3a5f !important;stroke-width:1px !important;rx:6 !important;ry:6 !important" x="-92.09375" y="-40.6875" width="184.1875" height="81.375"/><g class="label" style="color:#c9d1d9 !important" transform="translate(-76.09375, -28.6875)"><rect/><foreignObject width="152.1875" height="57.375"><div style="color: rgb(201, 209, 217) !important; display: table-cell; white-space: nowrap; line-height: 1.5; max-width: 200px; text-align: center;" xmlns="http://www.w3.org/1999/xhtml"><span style="color:#c9d1d9 !important" class="nodeLabel"><p></p><div style="text-align:center;line-height:1.7"><code>checkpoint.md</code><br /><small style="color:#6e7681">branch · files · instructions</small></div><p></p></span></div></foreignObject></g></g><g class="node default journalLine" id="my-svg-flowchart-sk_r-9" data-look="neo" transform="translate(815.3828125, 431.671875)"><rect class="basic label-container" style="fill:#0a1628 !important;stroke:#1e3a5f !important;stroke-width:1px !important;rx:6 !important;ry:6 !important" x="-71.171875" y="-40.6875" width="142.34375" height="81.375"/><g class="label" style="color:#c9d1d9 !important" transform="translate(-55.171875, -28.6875)"><rect/><foreignObject width="110.34375" height="57.375"><div style="color: rgb(201, 209, 217) !important; display: table-cell; white-space: nowrap; line-height: 1.5; max-width: 200px; text-align: center;" xmlns="http://www.w3.org/1999/xhtml"><span style="color:#c9d1d9 !important" class="nodeLabel"><p></p><div style="text-align:center;line-height:1.7"><code>remember.md</code><br /><small style="color:#6e7681">user-flagged items</small></div><p></p></span></div></foreignObject></g></g><g class="node default journalLine" id="my-svg-flowchart-sk_m-10" data-look="neo" transform="translate(1008.96875, 431.671875)"><rect class="basic label-container" style="fill:#0a1628 !important;stroke:#1e3a5f !important;stroke-width:1px !important;rx:6 !important;ry:6 !important" x="-78.4140625" y="-40.6875" width="156.828125" height="81.375"/><g class="label" style="color:#c9d1d9 !important" transform="translate(-62.4140625, -28.6875)"><rect/><foreignObject width="124.828125" height="57.375"><div style="color: rgb(201, 209, 217) !important; display: table-cell; white-space: nowrap; line-height: 1.5; max-width: 200px; text-align: center;" xmlns="http://www.w3.org/1999/xhtml"><span style="color:#c9d1d9 !important" class="nodeLabel"><p></p><div style="text-align:center;line-height:1.7"><code>metrics.jsonl</code><br /><small style="color:#6e7681">checkpoint_saved</small></div><p></p></span></div></foreignObject></g></g><g class="node default reportNode" id="my-svg-flowchart-report-11" data-look="neo" transform="translate(1035.953125, 621.234375)"><g class="basic label-container outer-path"><path d="M-47.4609375 -36 C-12.797911968276914 -36, 21.865113563446172 -36, 47.4609375 -36 C47.4609375 -36, 47.4609375 -36, 47.4609375 -36 C48.00831023168776 -35.982446821891166, 48.55568296337551 -35.964893643782325, 49.767465419305665 -35.92603413901211 C50.50523197548774 -35.85486268663132, 51.24299853166981 -35.78369123425054, 52.064515320642215 -35.70444049763686 C52.53569151018969 -35.62826438533675, 53.006867699737164 -35.55208827303664, 54.3426481332494 -35.336129651678355 C54.87321922794694 -35.215030261613606, 55.403790322644475 -35.09393087154885, 56.59250252074226 -34.82261506940506 C57.42461986503848 -34.575647009491014, 58.25673720933471 -34.32867894957696, 58.804833348850345 -34.16600689238407 C59.30208373280679 -33.98301415455593, 59.799334116763234 -33.8000214167278, 60.970549675657466 -33.36900326445678 C61.74848215836585 -33.02463563090897, 62.52641464107423 -32.68026799736116, 63.08075210823209 -32.43487924448709 C63.76164509252782 -32.07965781071278, 64.44253807682355 -31.724436376938463, 65.12676937214175 -31.367473348442022 C65.67043855108007 -31.037897897214886, 66.21410773001838 -30.70832244598775, 67.10019394357975 -30.171171776106267 C67.68023183399387 -29.766562453188953, 68.260269724408 -29.361953130271644, 68.99291659768377 -28.850890387246437 C69.65150228823717 -28.32568582473136, 70.31008797879058 -27.800481262216277, 70.79715973108037 -27.412054501288843 C71.41037208442356 -26.855151266692346, 72.02358443776674 -26.29824803209585, 72.50550932172551 -25.860576603518194 C73.07387940931619 -25.273687824028798, 73.64224949690686 -24.686799044539406, 74.11094539471135 -24.202832049407412 C74.64012591096508 -23.581226503791388, 75.16930642721881 -22.959620958175368, 75.60687086884907 -22.44563286691441 C76.01155141298635 -21.90339780492646, 76.41623195712363 -21.36116274293851, 76.9871386654904 -20.596199764398115 C77.28149500744763 -20.14398937740655, 77.57585134940486 -19.691778990414985, 78.24607696819245 -18.662132459178906 C78.69271802208203 -17.869076040686966, 79.13935907597163 -17.076019622195027, 79.37851252942801 -16.65137844867007 C79.6929395466544 -15.998464019739036, 80.00736656388081 -15.345549590808004, 80.37979192856925 -14.572200352406186 C80.62550177428184 -13.965292283019377, 80.87121161999444 -13.358384213632567, 81.24580069379137 -12.433141959167092 C81.48125971510711 -11.723976902264452, 81.71671873642285 -11.014811845361814, 81.97298020931979 -10.242993118717179 C82.15265430712945 -9.557817912522358, 82.3323284049391 -8.87264270632754, 82.55834233854566 -8.010753622427321 C82.7309356077623 -7.124523662600224, 82.90352887697894 -6.238293702773127, 82.9994817029202 -5.745596221201666 C83.09829064896314 -4.979253547725989, 83.19709959500608 -4.212910874250312, 83.29458556617114 -3.45682893267655 C83.33502928229937 -2.82688540839929, 83.3754729984276 -2.1969418841220296, 83.44244128322477 -1.153856792579586 C83.44244128322477 -0.4740708493066548, 83.44244128322477 0.2057150939662764, 83.44244128322477 1.1538567925795773 C83.39016957844925 1.968030787419072, 83.33789787367371 2.7822047822585665, 83.29458556617114 3.4568289326765256 C83.21325362695217 4.087623392450835, 83.13192168773321 4.718417852225145, 82.9994817029202 5.745596221201641 C82.84632799523916 6.532008141096251, 82.69317428755811 7.318420060990862, 82.55834233854566 8.010753622427314 C82.36044002640023 8.765440910042473, 82.1625377142548 9.52012819765763, 81.97298020931979 10.242993118717154 C81.75999118341922 10.88448212953689, 81.54700215751865 11.525971140356626, 81.24580069379138 12.433141959167068 C80.90664335008918 13.270867155272654, 80.56748600638699 14.10859235137824, 80.37979192856925 14.572200352406176 C80.13292813207043 15.08481830787504, 79.88606433557162 15.597436263343903, 79.37851252942801 16.651378448670062 C78.98277249879489 17.354054946082623, 78.58703246816178 18.056731443495188, 78.24607696819245 18.6621324591789 C77.83769594916697 19.289515370060297, 77.42931493014149 19.916898280941698, 76.98713866549042 20.596199764398097 C76.49899901498617 21.250262425636794, 76.01085936448192 21.904325086875488, 75.60687086884909 22.4456328669144 C75.24698856487421 22.868371099046488, 74.88710626089934 23.291109331178575, 74.11094539471136 24.20283204940739 C73.78959573283241 24.534651958595322, 73.46824607095344 24.866471867783254, 72.50550932172553 25.860576603518187 C71.98222406764745 26.33581042590277, 71.45893881356938 26.81104424828736, 70.7971597310804 27.412054501288818 C70.33139390727564 27.783490351224014, 69.86562808347087 28.154926201159206, 68.99291659768379 28.850890387246434 C68.39613125161597 29.267182010242095, 67.79934590554814 29.683473633237753, 67.10019394357977 30.171171776106252 C66.67103049512555 30.43133318060357, 66.24186704667133 30.691494585100884, 65.12676937214177 31.36747334844202 C64.65170158701208 31.615315907648732, 64.1766338018824 31.86315846685545, 63.0807521082321 32.434879244487085 C62.48807126276061 32.6972414735247, 61.89539041728912 32.959603702562305, 60.97054967565748 33.36900326445678 C60.17914734678085 33.66024663712631, 59.387745017904216 33.95149000979585, 58.804833348850366 34.16600689238406 C57.96094208569285 34.41646938961358, 57.11705082253533 34.6669318868431, 56.5925025207423 34.82261506940505 C56.089695624212176 34.937377462416414, 55.58688872768206 35.052139855427775, 54.34264813324941 35.33612965167835 C53.5936327458973 35.457224650804356, 52.844617358545186 35.578319649930364, 52.064515320642236 35.70444049763686 C51.286320740634004 35.779511992854346, 50.50812616062578 35.854583488071825, 49.767465419305665 35.92603413901211 C49.11214851641998 35.947048876590685, 48.4568316135343 35.96806361416925, 47.46093750000001 36 C47.46093750000001 36, 47.46093750000001 36, 47.4609375 36 C22.659964832849692 36, -2.1410078343006163 36, -47.46093749999999 36 C-48.26480220876962 35.97422162341749, -49.06866691753926 35.94844324683499, -49.76746541930565 35.92603413901211 C-50.48011655432714 35.85728554110497, -51.192767689348635 35.78853694319783, -52.06451532064222 35.70444049763686 C-52.7789934122674 35.58892922064325, -53.49347150389257 35.47341794364965, -54.3426481332494 35.33612965167835 C-55.05309550490823 35.17397467519959, -55.76354287656706 35.01181969872083, -56.59250252074226 34.82261506940506 C-57.11361256284437 34.66795234427158, -57.63472260494648 34.513289619138106, -58.80483334885032 34.166006892384075 C-59.50813296929729 33.90718613082917, -60.21143258974426 33.64836536927426, -60.97054967565747 33.36900326445678 C-61.45009636637976 33.15672216972118, -61.92964305710205 32.94444107498558, -63.08075210823209 32.43487924448709 C-63.73145986109998 32.09540542661412, -64.38216761396787 31.75593160874115, -65.12676937214175 31.367473348442026 C-65.8268408901715 30.943085880135495, -66.52691240820126 30.518698411828964, -67.10019394357973 30.171171776106277 C-67.65637912244246 29.78320107219998, -68.21256430130519 29.39523036829368, -68.99291659768377 28.85089038724644 C-69.64017152577875 28.334721806267694, -70.28742645387375 27.81855322528895, -70.79715973108037 27.412054501288846 C-71.24467659166748 27.00563152915092, -71.69219345225459 26.599208557012997, -72.5055093217255 25.86057660351821 C-72.88907839728684 25.464510041394355, -73.27264747284819 25.0684434792705, -74.11094539471136 24.202832049407405 C-74.57767972290239 23.654579349578597, -75.04441405109341 23.10632664974979, -75.60687086884907 22.445632866914412 C-76.02485087593008 21.885577736187862, -76.44283088301108 21.325522605461313, -76.9871386654904 20.59619976439812 C-77.41805219034404 19.934200873739673, -77.84896571519768 19.272201983081224, -78.24607696819245 18.66213245917892 C-78.58062199515315 18.068113887452792, -78.91516702211386 17.474095315726665, -79.37851252942801 16.651378448670073 C-79.74400560123486 15.8924242647642, -80.1094986730417 15.133470080858325, -80.37979192856925 14.57220035240619 C-80.6495158810934 13.905976974913694, -80.91923983361752 13.239753597421197, -81.24580069379137 12.433141959167095 C-81.46859699425343 11.762114999945126, -81.69139329471551 11.09108804072316, -81.97298020931979 10.242993118717168 C-82.17688895264352 9.46540070581534, -82.38079769596727 8.687808292913513, -82.55834233854564 8.010753622427327 C-82.73020960179727 7.128251549789174, -82.9020768650489 6.245749477151021, -82.9994817029202 5.745596221201669 C-83.0715428383153 5.186704285158073, -83.14360397371037 4.6278123491144765, -83.29458556617112 3.4568289326765704 C-83.331720184035 2.878427284922517, -83.3688548018989 2.300025637168463, -83.44244128322477 1.1538567925795904 C-83.44244128322477 0.617897416205451, -83.44244128322477 0.08193803983131165, -83.44244128322477 -1.1538567925795729 C-83.38564510651403 -2.038503089897929, -83.3288489298033 -2.9231493872162853, -83.29458556617114 -3.4568289326765207 C-83.22961621109549 -3.9607184209929382, -83.16464685601984 -4.464607909309356, -82.9994817029202 -5.7455962212016525 C-82.90251155693596 -6.243517426183108, -82.80554141095173 -6.741438631164563, -82.55834233854566 -8.01075362242731 C-82.41776850133414 -8.546822588801286, -82.2771946641226 -9.082891555175259, -81.97298020931979 -10.24299311871715 C-81.78660080211894 -10.804338197680313, -81.60022139491808 -11.365683276643475, -81.24580069379138 -12.433141959167049 C-80.95318815274752 -13.155900592824022, -80.66057561170365 -13.878659226480995, -80.37979192856925 -14.572200352406172 C-80.04114218274798 -15.275413795547829, -79.7024924369267 -15.978627238689487, -79.37851252942801 -16.65137844867006 C-79.01243704522719 -17.30138254003103, -78.64636156102637 -17.951386631392005, -78.24607696819245 -18.66213245917891 C-77.75943634993023 -19.409743130132806, -77.272795731668 -20.157353801086703, -76.98713866549042 -20.596199764398108 C-76.60779034432895 -21.104491955411465, -76.22844202316749 -21.612784146424822, -75.60687086884909 -22.4456328669144 C-75.08954118939069 -23.053317745298905, -74.57221150993229 -23.66100262368341, -74.11094539471136 -24.20283204940739 C-73.75194312924116 -24.573531363139534, -73.39294086377095 -24.944230676871676, -72.50550932172553 -25.860576603518172 C-72.11347043841351 -26.2166159445617, -71.7214315551015 -26.572655285605226, -70.79715973108041 -27.412054501288814 C-70.17590807220776 -27.907486167038805, -69.55465641333511 -28.402917832788795, -68.99291659768379 -28.85089038724643 C-68.31019437803042 -29.32712785310807, -67.62747215837705 -29.803365318969707, -67.10019394357977 -30.17117177610625 C-66.5432262462719 -30.508808867319775, -65.98625854896405 -30.8464459585333, -65.12676937214177 -31.367473348442015 C-64.60783517056434 -31.63820098901174, -64.08890096898692 -31.90892862958146, -63.080752108232105 -32.434879244487085 C-62.374024283725184 -32.74772668806025, -61.66729645921826 -33.06057413163341, -60.97054967565749 -33.36900326445677 C-60.490128576922956 -33.545802669755034, -60.00970747818842 -33.7226020750533, -58.80483334885037 -34.16600689238406 C-58.11737239508817 -34.3700416949045, -57.42991144132597 -34.57407649742494, -56.5925025207423 -34.822615069405046 C-55.78286240091325 -35.00741014336049, -54.973222281084205 -35.19220521731593, -54.34264813324942 -35.33612965167835 C-53.7154423057024 -35.437531425822314, -53.08823647815538 -35.53893319996628, -52.06451532064224 -35.70444049763686 C-51.20484655086201 -35.7873717099546, -50.34517778108177 -35.87030292227234, -49.767465419305665 -35.92603413901211 C-49.002553171863745 -35.9505633859762, -48.237640924421825 -35.975092632940296, -47.460937500000014 -36 C-47.46093750000001 -36, -47.46093750000001 -36, -47.4609375 -36" stroke="none" stroke-width="0" fill="#0f1d33" style="fill:#0f1d33 !important;stroke:#3fb950 !important;stroke-width:2px !important;rx:10 !important;ry:10 !important"/><path d="M-47.4609375 -36 C-10.600640096840188 -36, 26.259657306319625 -36, 47.4609375 -36 M-47.4609375 -36 C-23.502527667815 -36, 0.45588216437000284 -36, 47.4609375 -36 M47.4609375 -36 C47.4609375 -36, 47.4609375 -36, 47.4609375 -36 M47.4609375 -36 C47.4609375 -36, 47.4609375 -36, 47.4609375 -36 M47.4609375 -36 C48.32577074882666 -35.97226648100593, 49.19060399765332 -35.944532962011856, 49.767465419305665 -35.92603413901211 M47.4609375 -36 C48.01010299064566 -35.98238933160078, 48.55926848129133 -35.96477866320155, 49.767465419305665 -35.92603413901211 M49.767465419305665 -35.92603413901211 C50.3295158315805 -35.87181381170447, 50.89156624385534 -35.81759348439684, 52.064515320642215 -35.70444049763686 M49.767465419305665 -35.92603413901211 C50.239112304571876 -35.880534931228844, 50.71075918983808 -35.835035723445586, 52.064515320642215 -35.70444049763686 M52.064515320642215 -35.70444049763686 C52.87729624461637 -35.57303638105893, 53.69007716859052 -35.44163226448099, 54.3426481332494 -35.336129651678355 M52.064515320642215 -35.70444049763686 C52.54073869968015 -35.62744839488147, 53.01696207871807 -35.55045629212608, 54.3426481332494 -35.336129651678355 M54.3426481332494 -35.336129651678355 C55.17553118200228 -35.14602953087034, 56.008414230755164 -34.95592941006232, 56.59250252074226 -34.82261506940506 M54.3426481332494 -35.336129651678355 C55.12691494713439 -35.15712586922835, 55.91118176101937 -34.97812208677835, 56.59250252074226 -34.82261506940506 M56.59250252074226 -34.82261506940506 C57.23671549073125 -34.63141604145521, 57.88092846072024 -34.44021701350536, 58.804833348850345 -34.16600689238407 M56.59250252074226 -34.82261506940506 C57.22934565883417 -34.633603368877225, 57.86618879692608 -34.444591668349396, 58.804833348850345 -34.16600689238407 M58.804833348850345 -34.16600689238407 C59.332579727851524 -33.97179134647759, 59.8603261068527 -33.7775758005711, 60.970549675657466 -33.36900326445678 M58.804833348850345 -34.16600689238407 C59.58689813019953 -33.87819982351998, 60.36896291154871 -33.59039275465589, 60.970549675657466 -33.36900326445678 M60.970549675657466 -33.36900326445678 C61.65205326291179 -33.06732184246493, 62.33355685016612 -32.76564042047308, 63.08075210823209 -32.43487924448709 M60.970549675657466 -33.36900326445678 C61.7989008019128 -33.00231679302666, 62.627251928168135 -32.63563032159654, 63.08075210823209 -32.43487924448709 M63.08075210823209 -32.43487924448709 C63.752300889850204 -32.08453267526445, 64.42384967146832 -31.7341861060418, 65.12676937214175 -31.367473348442022 M63.08075210823209 -32.43487924448709 C63.79859839450079 -32.0603792967432, 64.5164446807695 -31.685879348999308, 65.12676937214175 -31.367473348442022 M65.12676937214175 -31.367473348442022 C65.83633674523684 -30.937329436991053, 66.54590411833192 -30.50718552554008, 67.10019394357975 -30.171171776106267 M65.12676937214175 -31.367473348442022 C65.57759969277001 -31.094177358704133, 66.02843001339828 -30.82088136896624, 67.10019394357975 -30.171171776106267 M67.10019394357975 -30.171171776106267 C67.55461350994365 -29.854188358116794, 68.00903307630755 -29.537204940127317, 68.99291659768377 -28.850890387246437 M67.10019394357975 -30.171171776106267 C67.66583887151454 -29.776602360753238, 68.23148379944932 -29.382032945400205, 68.99291659768377 -28.850890387246437 M68.99291659768377 -28.850890387246437 C69.47380219157739 -28.467396923019372, 69.954687785471 -28.083903458792303, 70.79715973108037 -27.412054501288843 M68.99291659768377 -28.850890387246437 C69.68117916315352 -28.30201930672039, 70.36944172862324 -27.753148226194337, 70.79715973108037 -27.412054501288843 M70.79715973108037 -27.412054501288843 C71.18169603548704 -27.062828803899798, 71.56623233989369 -26.713603106510753, 72.50550932172551 -25.860576603518194 M70.79715973108037 -27.412054501288843 C71.23550919576239 -27.013957115555915, 71.67385866044441 -26.615859729822986, 72.50550932172551 -25.860576603518194 M72.50550932172551 -25.860576603518194 C72.85635030177224 -25.4983044870398, 73.20719128181895 -25.136032370561406, 74.11094539471135 -24.202832049407412 M72.50550932172551 -25.860576603518194 C73.10245287750374 -25.24418337219978, 73.69939643328196 -24.62779014088137, 74.11094539471135 -24.202832049407412 M74.11094539471135 -24.202832049407412 C74.55897415777162 -23.676551970758013, 75.00700292083187 -23.150271892108616, 75.60687086884907 -22.44563286691441 M74.11094539471135 -24.202832049407412 C74.61955875905514 -23.605385850728904, 75.12817212339893 -23.0079396520504, 75.60687086884907 -22.44563286691441 M75.60687086884907 -22.44563286691441 C76.09271491968946 -21.794646100091864, 76.57855897052984 -21.143659333269316, 76.9871386654904 -20.596199764398115 M75.60687086884907 -22.44563286691441 C75.90995050147072 -22.039533770323956, 76.21303013409235 -21.633434673733507, 76.9871386654904 -20.596199764398115 M76.9871386654904 -20.596199764398115 C77.48082944166877 -19.837758157652548, 77.97452021784714 -19.079316550906984, 78.24607696819245 -18.662132459178906 M76.9871386654904 -20.596199764398115 C77.43640576949822 -19.906004847532767, 77.88567287350605 -19.215809930667415, 78.24607696819245 -18.662132459178906 M78.24607696819245 -18.662132459178906 C78.57647282815827 -18.0754811536009, 78.9068686881241 -17.488829848022895, 79.37851252942801 -16.65137844867007 M78.24607696819245 -18.662132459178906 C78.53797134057014 -18.143844443512034, 78.82986571294781 -17.62555642784516, 79.37851252942801 -16.65137844867007 M79.37851252942801 -16.65137844867007 C79.68182439483658 -16.021544870314898, 79.98513626024516 -15.391711291959728, 80.37979192856925 -14.572200352406186 M79.37851252942801 -16.65137844867007 C79.7787050388154 -15.820370140179163, 80.1788975482028 -14.989361831688258, 80.37979192856925 -14.572200352406186 M80.37979192856925 -14.572200352406186 C80.60788927024733 -14.00879550849923, 80.8359866119254 -13.44539066459227, 81.24580069379137 -12.433141959167092 M80.37979192856925 -14.572200352406186 C80.65891876325848 -13.88275167417355, 80.93804559794772 -13.193302995940911, 81.24580069379137 -12.433141959167092 M81.24580069379137 -12.433141959167092 C81.3969034526829 -11.978044524340977, 81.54800621157443 -11.522947089514862, 81.97298020931979 -10.242993118717179 M81.24580069379137 -12.433141959167092 C81.46181834861477 -11.782531200578305, 81.67783600343816 -11.13192044198952, 81.97298020931979 -10.242993118717179 M81.97298020931979 -10.242993118717179 C82.09655384071964 -9.771753305038905, 82.22012747211949 -9.30051349136063, 82.55834233854566 -8.010753622427321 M81.97298020931979 -10.242993118717179 C82.0933102076162 -9.784122683861828, 82.2136402059126 -9.325252249006477, 82.55834233854566 -8.010753622427321 M82.55834233854566 -8.010753622427321 C82.72883347177299 -7.135317686618744, 82.89932460500032 -6.259881750810167, 82.9994817029202 -5.745596221201666 M82.55834233854566 -8.010753622427321 C82.67765081809696 -7.398129795787401, 82.79695929764829 -6.785505969147481, 82.9994817029202 -5.745596221201666 M82.9994817029202 -5.745596221201666 C83.06978257891986 -5.200356509426595, 83.14008345491949 -4.655116797651525, 83.29458556617114 -3.45682893267655 M82.9994817029202 -5.745596221201666 C83.09957355052163 -4.969303616575939, 83.19966539812306 -4.193011011950211, 83.29458556617114 -3.45682893267655 M83.29458556617114 -3.45682893267655 C83.33588345228938 -2.81358102133127, 83.37718133840762 -2.1703331099859904, 83.44244128322477 -1.153856792579586 M83.29458556617114 -3.45682893267655 C83.35115515780652 -2.575711880803036, 83.4077247494419 -1.6945948289295214, 83.44244128322477 -1.153856792579586 M83.44244128322477 -1.153856792579586 C83.44244128322477 -0.6281838491046161, 83.44244128322477 -0.10251090562964627, 83.44244128322477 1.1538567925795773 M83.44244128322477 -1.153856792579586 C83.44244128322477 -0.6857924786431395, 83.44244128322477 -0.2177281647066932, 83.44244128322477 1.1538567925795773 M83.44244128322477 1.1538567925795773 C83.39892399636808 1.8316736618940448, 83.35540670951141 2.5094905312085123, 83.29458556617114 3.4568289326765256 M83.44244128322477 1.1538567925795773 C83.39622719762588 1.8736784791207577, 83.35001311202699 2.593500165661938, 83.29458556617114 3.4568289326765256 M83.29458556617114 3.4568289326765256 C83.21315618957878 4.088379097477628, 83.13172681298643 4.719929262278732, 82.9994817029202 5.745596221201641 M83.29458556617114 3.4568289326765256 C83.1840793868574 4.313893037520502, 83.07357320754367 5.170957142364478, 82.9994817029202 5.745596221201641 M82.9994817029202 5.745596221201641 C82.84907813161786 6.517886772033163, 82.69867456031551 7.290177322864684, 82.55834233854566 8.010753622427314 M82.9994817029202 5.745596221201641 C82.8954450078402 6.279802662274208, 82.79140831276018 6.814009103346775, 82.55834233854566 8.010753622427314 M82.55834233854566 8.010753622427314 C82.35726484771618 8.777549242495898, 82.1561873568867 9.54434486256448, 81.97298020931979 10.242993118717154 M82.55834233854566 8.010753622427314 C82.36698473495606 8.740483099824456, 82.17562713136647 9.470212577221599, 81.97298020931979 10.242993118717154 M81.97298020931979 10.242993118717154 C81.73344855065837 10.964424310418341, 81.49391689199695 11.685855502119528, 81.24580069379138 12.433141959167068 M81.97298020931979 10.242993118717154 C81.75378900036395 10.90316211671567, 81.53459779140812 11.563331114714185, 81.24580069379138 12.433141959167068 M81.24580069379138 12.433141959167068 C81.00514851672018 13.027557489226261, 80.76449633964897 13.621973019285454, 80.37979192856925 14.572200352406176 M81.24580069379138 12.433141959167068 C81.06784014941461 12.872707944410774, 80.88987960503782 13.31227392965448, 80.37979192856925 14.572200352406176 M80.37979192856925 14.572200352406176 C80.17144939551225 15.00482808011509, 79.96310686245528 15.437455807824005, 79.37851252942801 16.651378448670062 M80.37979192856925 14.572200352406176 C80.03660740496699 15.284830358638759, 79.69342288136473 15.997460364871342, 79.37851252942801 16.651378448670062 M79.37851252942801 16.651378448670062 C78.96206983221698 17.39081462696401, 78.54562713500597 18.130250805257955, 78.24607696819245 18.6621324591789 M79.37851252942801 16.651378448670062 C79.08727140366254 17.16850655882856, 78.79603027789707 17.685634668987063, 78.24607696819245 18.6621324591789 M78.24607696819245 18.6621324591789 C77.93718435163137 19.136674467498267, 77.62829173507029 19.61121647581763, 76.98713866549042 20.596199764398097 M78.24607696819245 18.6621324591789 C77.97908585545146 19.072302505501384, 77.71209474271048 19.48247255182387, 76.98713866549042 20.596199764398097 M76.98713866549042 20.596199764398097 C76.44315434362176 21.32508919771088, 75.8991700217531 22.05397863102366, 75.60687086884909 22.4456328669144 M76.98713866549042 20.596199764398097 C76.65405883048433 21.04249639910906, 76.32097899547823 21.488793033820016, 75.60687086884909 22.4456328669144 M75.60687086884909 22.4456328669144 C75.03333717170307 23.119338182573983, 74.45980347455705 23.79304349823357, 74.11094539471136 24.20283204940739 M75.60687086884909 22.4456328669144 C75.17876888172097 22.948505820688236, 74.75066689459284 23.451378774462075, 74.11094539471136 24.20283204940739 M74.11094539471136 24.20283204940739 C73.7877472196889 24.536560700181756, 73.46454904466641 24.870289350956117, 72.50550932172553 25.860576603518187 M74.11094539471136 24.20283204940739 C73.77924031363428 24.545344779113115, 73.4475352325572 24.887857508818836, 72.50550932172553 25.860576603518187 M72.50550932172553 25.860576603518187 C71.95317452004365 26.362192456427636, 71.40083971836177 26.863808309337085, 70.7971597310804 27.412054501288818 M72.50550932172553 25.860576603518187 C72.11927873953307 26.211340999164157, 71.73304815734062 26.56210539481013, 70.7971597310804 27.412054501288818 M70.7971597310804 27.412054501288818 C70.26456137817291 27.836787514695136, 69.73196302526544 28.261520528101457, 68.99291659768379 28.850890387246434 M70.7971597310804 27.412054501288818 C70.16493382983941 27.9162378332907, 69.53270792859843 28.420421165292584, 68.99291659768379 28.850890387246434 M68.99291659768379 28.850890387246434 C68.36198927372287 29.290997976037914, 67.73106194976195 29.73110556482939, 67.10019394357977 30.171171776106252 M68.99291659768379 28.850890387246434 C68.28820413996995 29.342467291236996, 67.5834916822561 29.834044195227555, 67.10019394357977 30.171171776106252 M67.10019394357977 30.171171776106252 C66.70138632320779 30.412931299229474, 66.30257870283579 30.65469082235269, 65.12676937214177 31.36747334844202 M67.10019394357977 30.171171776106252 C66.31689490450961 30.64601225676668, 65.53359586543945 31.120852737427114, 65.12676937214177 31.36747334844202 M65.12676937214177 31.36747334844202 C64.48596796670938 31.701779031203202, 63.845166561277 32.036084713964385, 63.0807521082321 32.434879244487085 M65.12676937214177 31.36747334844202 C64.65056742284682 31.615907600367287, 64.17436547355186 31.864341852292558, 63.0807521082321 32.434879244487085 M63.0807521082321 32.434879244487085 C62.46946084261989 32.705479754462495, 61.858169577007686 32.9760802644379, 60.97054967565748 33.36900326445678 M63.0807521082321 32.434879244487085 C62.36934200192135 32.74979939531985, 61.65793189561061 33.06471954615261, 60.97054967565748 33.36900326445678 M60.97054967565748 33.36900326445678 C60.143002718821236 33.673548194332724, 59.31545576198499 33.97809312420868, 58.804833348850366 34.16600689238406 M60.97054967565748 33.36900326445678 C60.19087640067789 33.65593023687001, 59.41120312569829 33.942857209283254, 58.804833348850366 34.16600689238406 M58.804833348850366 34.16600689238406 C58.168541958547436 34.35485483706431, 57.53225056824451 34.54370278174456, 56.5925025207423 34.82261506940505 M58.804833348850366 34.16600689238406 C58.249832051742025 34.33072836410456, 57.694830754633685 34.49544983582506, 56.5925025207423 34.82261506940505 M56.5925025207423 34.82261506940505 C55.83522713959183 34.99545823346896, 55.07795175844136 35.168301397532865, 54.34264813324941 35.33612965167835 M56.5925025207423 34.82261506940505 C56.12088349130513 34.9302590352723, 55.64926446186795 35.037903001139554, 54.34264813324941 35.33612965167835 M54.34264813324941 35.33612965167835 C53.867119106551556 35.413009496932176, 53.3915900798537 35.48988934218601, 52.064515320642236 35.70444049763686 M54.34264813324941 35.33612965167835 C53.642029884169084 35.44940017681399, 52.94141163508876 35.56267070194963, 52.064515320642236 35.70444049763686 M52.064515320642236 35.70444049763686 C51.22468895450713 35.78545753713893, 50.38486258837202 35.86647457664101, 49.767465419305665 35.92603413901211 M52.064515320642236 35.70444049763686 C51.27912056614013 35.78020658502829, 50.493725811638015 35.85597267241972, 49.767465419305665 35.92603413901211 M49.767465419305665 35.92603413901211 C48.88679011537654 35.95427568187863, 48.00611481144741 35.982517224745145, 47.46093750000001 36 M49.767465419305665 35.92603413901211 C49.04831877681548 35.949095772102744, 48.32917213432529 35.972157405193386, 47.46093750000001 36 M47.46093750000001 36 C47.46093750000001 36, 47.46093750000001 36, 47.4609375 36 M47.46093750000001 36 C47.46093750000001 36, 47.4609375 36, 47.4609375 36 M47.4609375 36 C24.622372997098136 36, 1.783808494196272 36, -47.46093749999999 36 M47.4609375 36 C24.07460510525106 36, 0.6882727105021189 36, -47.46093749999999 36 M-47.46093749999999 36 C-48.18662788107936 35.976728521949425, -48.91231826215872 35.953457043898844, -49.76746541930565 35.92603413901211 M-47.46093749999999 36 C-48.261813076499344 35.97431747907141, -49.062688652998695 35.94863495814282, -49.76746541930565 35.92603413901211 M-49.76746541930565 35.92603413901211 C-50.5097656342462 35.85442533002342, -51.25206584918675 35.782816521034725, -52.06451532064222 35.70444049763686 M-49.76746541930565 35.92603413901211 C-50.283809341718545 35.87622306181136, -50.80015326413144 35.82641198461061, -52.06451532064222 35.70444049763686 M-52.06451532064222 35.70444049763686 C-52.91907258219902 35.566282306778895, -53.77362984375581 35.42812411592093, -54.3426481332494 35.33612965167835 M-52.06451532064222 35.70444049763686 C-52.92041341428582 35.56606553144541, -53.77631150792942 35.42769056525396, -54.3426481332494 35.33612965167835 M-54.3426481332494 35.33612965167835 C-54.89403741546482 35.210278646164014, -55.44542669768025 35.08442764064967, -56.59250252074226 34.82261506940506 M-54.3426481332494 35.33612965167835 C-54.9627076035099 35.19460512385758, -55.5827670737704 35.05308059603681, -56.59250252074226 34.82261506940506 M-56.59250252074226 34.82261506940506 C-57.17017170386447 34.65116588810181, -57.74784088698667 34.479716706798555, -58.80483334885032 34.166006892384075 M-56.59250252074226 34.82261506940506 C-57.30000622069242 34.612631685022556, -58.00750992064257 34.40264830064006, -58.80483334885032 34.166006892384075 M-58.80483334885032 34.166006892384075 C-59.39278843899211 33.94963398421462, -59.9807435291339 33.733261076045174, -60.97054967565747 33.36900326445678 M-58.80483334885032 34.166006892384075 C-59.585761141326024 33.87861824593564, -60.36668893380172 33.5912295994872, -60.97054967565747 33.36900326445678 M-60.97054967565747 33.36900326445678 C-61.70452125079852 33.044095820635036, -62.43849282593957 32.7191883768133, -63.08075210823209 32.43487924448709 M-60.97054967565747 33.36900326445678 C-61.45859114066517 33.152961785133556, -61.94663260567287 32.93692030581033, -63.08075210823209 32.43487924448709 M-63.08075210823209 32.43487924448709 C-63.60462385692136 32.161575688751775, -64.12849560561062 31.888272133016454, -65.12676937214175 31.367473348442026 M-63.08075210823209 32.43487924448709 C-63.58066122105617 32.17407698053384, -64.08057033388025 31.913274716580588, -65.12676937214175 31.367473348442026 M-65.12676937214175 31.367473348442026 C-65.62389832568694 31.066110855348924, -66.12102727923212 30.764748362255823, -67.10019394357973 30.171171776106277 M-65.12676937214175 31.367473348442026 C-65.76049044931793 30.983307907299405, -66.39421152649409 30.59914246615678, -67.10019394357973 30.171171776106277 M-67.10019394357973 30.171171776106277 C-67.60450273728706 29.81938779279186, -68.1088115309944 29.467603809477442, -68.99291659768377 28.85089038724644 M-67.10019394357973 30.171171776106277 C-67.83958523017546 29.655404422310017, -68.57897651677119 29.139637068513757, -68.99291659768377 28.85089038724644 M-68.99291659768377 28.85089038724644 C-69.5770873719211 28.385029740229346, -70.16125814615842 27.919169093212254, -70.79715973108037 27.412054501288846 M-68.99291659768377 28.85089038724644 C-69.62412406269104 28.34751923103922, -70.25533152769832 27.844148074832, -70.79715973108037 27.412054501288846 M-70.79715973108037 27.412054501288846 C-71.37295107062103 26.889136041322033, -71.9487424101617 26.36621758135522, -72.5055093217255 25.86057660351821 M-70.79715973108037 27.412054501288846 C-71.15786527013836 27.08447127446197, -71.51857080919635 26.756888047635087, -72.5055093217255 25.86057660351821 M-72.5055093217255 25.86057660351821 C-72.82674421972898 25.528875197454006, -73.14797911773246 25.1971737913898, -74.11094539471136 24.202832049407405 M-72.5055093217255 25.86057660351821 C-73.04126269966387 25.30736725462647, -73.57701607760227 24.754157905734733, -74.11094539471136 24.202832049407405 M-74.11094539471136 24.202832049407405 C-74.63672381103545 23.585222803953716, -75.16250222735954 22.967613558500027, -75.60687086884907 22.445632866914412 M-74.11094539471136 24.202832049407405 C-74.55089269164083 23.68604492072369, -74.99083998857029 23.16925779203997, -75.60687086884907 22.445632866914412 M-75.60687086884907 22.445632866914412 C-76.00973720118775 21.905828683458484, -76.41260353352644 21.366024500002556, -76.9871386654904 20.59619976439812 M-75.60687086884907 22.445632866914412 C-76.05819738923581 21.840896446288024, -76.50952390962257 21.236160025661636, -76.9871386654904 20.59619976439812 M-76.9871386654904 20.59619976439812 C-77.29031954152231 20.13043252334866, -77.59350041755421 19.6646652822992, -78.24607696819245 18.66213245917892 M-76.9871386654904 20.59619976439812 C-77.38514331264307 19.984757747159364, -77.78314795979574 19.373315729920606, -78.24607696819245 18.66213245917892 M-78.24607696819245 18.66213245917892 C-78.62329185506033 17.99234923039576, -79.0005067419282 17.3225660016126, -79.37851252942801 16.651378448670073 M-78.24607696819245 18.66213245917892 C-78.48675535943993 18.234783604189197, -78.72743375068738 17.807434749199473, -79.37851252942801 16.651378448670073 M-79.37851252942801 16.651378448670073 C-79.64517780317821 16.097642302004964, -79.9118430769284 15.543906155339851, -80.37979192856925 14.57220035240619 M-79.37851252942801 16.651378448670073 C-79.63264373571415 16.123669561280142, -79.88677494200032 15.595960673890207, -80.37979192856925 14.57220035240619 M-80.37979192856925 14.57220035240619 C-80.55644822995576 14.135855872564239, -80.73310453134229 13.69951139272229, -81.24580069379137 12.433141959167095 M-80.37979192856925 14.57220035240619 C-80.57809692701463 14.082383172279773, -80.77640192546001 13.592565992153354, -81.24580069379137 12.433141959167095 M-81.24580069379137 12.433141959167095 C-81.46868255248698 11.761857312177566, -81.69156441118258 11.090572665188038, -81.97298020931979 10.242993118717168 M-81.24580069379137 12.433141959167095 C-81.5007277864615 11.665342173160992, -81.75565487913161 10.897542387154889, -81.97298020931979 10.242993118717168 M-81.97298020931979 10.242993118717168 C-82.1736041233525 9.477927183556043, -82.37422803738522 8.712861248394917, -82.55834233854564 8.010753622427327 M-81.97298020931979 10.242993118717168 C-82.15284847329417 9.557077472784103, -82.33271673726856 8.87116182685104, -82.55834233854564 8.010753622427327 M-82.55834233854564 8.010753622427327 C-82.7070716330611 7.247060129037973, -82.85580092757657 6.4833666356486175, -82.9994817029202 5.745596221201669 M-82.55834233854564 8.010753622427327 C-82.68680779249233 7.35111066759437, -82.81527324643903 6.691467712761415, -82.9994817029202 5.745596221201669 M-82.9994817029202 5.745596221201669 C-83.10114139550693 4.957143720475941, -83.20280108809365 4.1686912197502135, -83.29458556617112 3.4568289326765704 M-82.9994817029202 5.745596221201669 C-83.09532555663273 5.002250218316968, -83.19116941034525 4.258904215432267, -83.29458556617112 3.4568289326765704 M-83.29458556617112 3.4568289326765704 C-83.33460786596501 2.833449307967762, -83.37463016575892 2.2100696832589533, -83.44244128322477 1.1538567925795904 M-83.29458556617112 3.4568289326765704 C-83.32545711847855 2.9759795864198457, -83.35632867078598 2.495130240163121, -83.44244128322477 1.1538567925795904 M-83.44244128322477 1.1538567925795904 C-83.44244128322477 0.6232667918253779, -83.44244128322477 0.09267679107116544, -83.44244128322477 -1.1538567925795729 M-83.44244128322477 1.1538567925795904 C-83.44244128322477 0.43024915540664455, -83.44244128322477 -0.2933584817663013, -83.44244128322477 -1.1538567925795729 M-83.44244128322477 -1.1538567925795729 C-83.39789476136511 -1.8477048278490034, -83.35334823950545 -2.541552863118434, -83.29458556617114 -3.4568289326765207 M-83.44244128322477 -1.1538567925795729 C-83.39044270714747 -1.9637765874786934, -83.33844413107016 -2.773696382377814, -83.29458556617114 -3.4568289326765207 M-83.29458556617114 -3.4568289326765207 C-83.217168100173 -4.057263511150228, -83.13975063417487 -4.657698089623936, -82.9994817029202 -5.7455962212016525 M-83.29458556617114 -3.4568289326765207 C-83.19392134913052 -4.237560721645548, -83.09325713208989 -5.018292510614575, -82.9994817029202 -5.7455962212016525 M-82.9994817029202 -5.7455962212016525 C-82.89244070003873 -6.295229147874027, -82.78539969715727 -6.8448620745464, -82.55834233854566 -8.01075362242731 M-82.9994817029202 -5.7455962212016525 C-82.86824842428376 -6.419451370836519, -82.73701514564732 -7.093306520471385, -82.55834233854566 -8.01075362242731 M-82.55834233854566 -8.01075362242731 C-82.43281762213256 -8.489433768866668, -82.30729290571946 -8.968113915306024, -81.97298020931979 -10.24299311871715 M-82.55834233854566 -8.01075362242731 C-82.43462867264269 -8.482527448357288, -82.31091500673972 -8.954301274287264, -81.97298020931979 -10.24299311871715 M-81.97298020931979 -10.24299311871715 C-81.75892774041944 -10.887685050415573, -81.54487527151909 -11.532376982113997, -81.24580069379138 -12.433141959167049 M-81.97298020931979 -10.24299311871715 C-81.73519482926757 -10.959164797479131, -81.49740944921535 -11.67533647624111, -81.24580069379138 -12.433141959167049 M-81.24580069379138 -12.433141959167049 C-80.98873558594268 -13.068097745569084, -80.73167047809399 -13.703053531971118, -80.37979192856925 -14.572200352406172 M-81.24580069379138 -12.433141959167049 C-81.0515226455756 -12.913012494370543, -80.85724459735984 -13.392883029574035, -80.37979192856925 -14.572200352406172 M-80.37979192856925 -14.572200352406172 C-80.10162256776935 -15.14982498197801, -79.82345320696946 -15.727449611549847, -79.37851252942801 -16.65137844867006 M-80.37979192856925 -14.572200352406172 C-80.17585675700539 -14.99567609967216, -79.97192158544155 -15.419151846938147, -79.37851252942801 -16.65137844867006 M-79.37851252942801 -16.65137844867006 C-78.9414944494466 -17.427348302556275, -78.50447636946518 -18.203318156442492, -78.24607696819245 -18.66213245917891 M-79.37851252942801 -16.65137844867006 C-79.13225473521324 -17.088634098604054, -78.88599694099845 -17.52588974853805, -78.24607696819245 -18.66213245917891 M-78.24607696819245 -18.66213245917891 C-77.7665350989437 -19.398837545367098, -77.28699322969496 -20.135542631555282, -76.98713866549042 -20.596199764398108 M-78.24607696819245 -18.66213245917891 C-77.89692003036308 -19.198531277450527, -77.5477630925337 -19.734930095722145, -76.98713866549042 -20.596199764398108 M-76.98713866549042 -20.596199764398108 C-76.61293411297565 -21.09759977403185, -76.23872956046088 -21.598999783665587, -75.60687086884909 -22.4456328669144 M-76.98713866549042 -20.596199764398108 C-76.51630651256754 -21.22707195562323, -76.04547435964466 -21.85794414684835, -75.60687086884909 -22.4456328669144 M-75.60687086884909 -22.4456328669144 C-75.1280846689079 -23.008042381071874, -74.6492984689667 -23.570451895229347, -74.11094539471136 -24.20283204940739 M-75.60687086884909 -22.4456328669144 C-75.22502939514202 -22.894165589326082, -74.84318792143495 -23.342698311737763, -74.11094539471136 -24.20283204940739 M-74.11094539471136 -24.20283204940739 C-73.67206572257574 -24.656011343578623, -73.23318605044011 -25.109190637749855, -72.50550932172553 -25.860576603518172 M-74.11094539471136 -24.20283204940739 C-73.6790774075974 -24.64877120312371, -73.24720942048344 -25.094710356840032, -72.50550932172553 -25.860576603518172 M-72.50550932172553 -25.860576603518172 C-72.01511703577583 -26.305937902548813, -71.52472474982615 -26.75129920157945, -70.79715973108041 -27.412054501288814 M-72.50550932172553 -25.860576603518172 C-71.93839580592432 -26.37561409356745, -71.37128229012312 -26.89065158361673, -70.79715973108041 -27.412054501288814 M-70.79715973108041 -27.412054501288814 C-70.21861722759004 -27.87342675215979, -69.64007472409968 -28.334799003030767, -68.99291659768379 -28.85089038724643 M-70.79715973108041 -27.412054501288814 C-70.1080084953041 -27.96163427273584, -69.41885725952781 -28.511214044182868, -68.99291659768379 -28.85089038724643 M-68.99291659768379 -28.85089038724643 C-68.61297702979346 -29.115919782487918, -68.23303746190312 -29.380949177729402, -67.10019394357977 -30.17117177610625 M-68.99291659768379 -28.85089038724643 C-68.53285248388818 -29.171811197175753, -68.07278837009255 -29.492732007105072, -67.10019394357977 -30.17117177610625 M-67.10019394357977 -30.17117177610625 C-66.693970086745 -30.417427065355852, -66.28774622991021 -30.66368235460546, -65.12676937214177 -31.367473348442015 M-67.10019394357977 -30.17117177610625 C-66.32793766583589 -30.639318069956218, -65.55568138809201 -31.107464363806187, -65.12676937214177 -31.367473348442015 M-65.12676937214177 -31.367473348442015 C-64.68415858180808 -31.598383114253362, -64.24154779147439 -31.829292880064706, -63.080752108232105 -32.434879244487085 M-65.12676937214177 -31.367473348442015 C-64.40932701315192 -31.74176256758325, -63.69188465416209 -32.11605178672449, -63.080752108232105 -32.434879244487085 M-63.080752108232105 -32.434879244487085 C-62.27835139535072 -32.79007823770822, -61.475950682469325 -33.145277230929366, -60.97054967565749 -33.36900326445677 M-63.080752108232105 -32.434879244487085 C-62.48286537482997 -32.699545965684415, -61.88497864142783 -32.96421268688174, -60.97054967565749 -33.36900326445677 M-60.97054967565749 -33.36900326445677 C-60.188469204930406 -33.65681610715696, -59.40638873420332 -33.944628949857155, -58.80483334885037 -34.16600689238406 M-60.97054967565749 -33.36900326445677 C-60.42312749344003 -33.57045968782798, -59.875705311222575 -33.77191611119918, -58.80483334885037 -34.16600689238406 M-58.80483334885037 -34.16600689238406 C-58.154038420459436 -34.3591594110382, -57.5032434920685 -34.552311929692344, -56.5925025207423 -34.822615069405046 M-58.80483334885037 -34.16600689238406 C-58.04325172120294 -34.39204032184628, -57.28167009355551 -34.61807375130849, -56.5925025207423 -34.822615069405046 M-56.5925025207423 -34.822615069405046 C-55.77515521399698 -35.00916925848003, -54.95780790725166 -35.19572344755502, -54.34264813324942 -35.33612965167835 M-56.5925025207423 -34.822615069405046 C-55.785181426745176 -35.00688084084741, -54.97786033274805 -35.19114661228977, -54.34264813324942 -35.33612965167835 M-54.34264813324942 -35.33612965167835 C-53.590044406482775 -35.457804785692915, -52.83744067971613 -35.579479919707474, -52.06451532064224 -35.70444049763686 M-54.34264813324942 -35.33612965167835 C-53.80420945817469 -35.423180241010144, -53.26577078309997 -35.51023083034194, -52.06451532064224 -35.70444049763686 M-52.06451532064224 -35.70444049763686 C-51.594430937532486 -35.749788972716274, -51.124346554422736 -35.79513744779568, -49.767465419305665 -35.92603413901211 M-52.06451532064224 -35.70444049763686 C-51.271899477782156 -35.780903194737554, -50.47928363492207 -35.85736589183825, -49.767465419305665 -35.92603413901211 M-49.767465419305665 -35.92603413901211 C-48.95289195699732 -35.95215592447728, -48.138318494688974 -35.97827770994245, -47.460937500000014 -36 M-49.767465419305665 -35.92603413901211 C-48.91572808305933 -35.953347697579375, -48.06399074681298 -35.98066125614665, -47.460937500000014 -36 M-47.460937500000014 -36 C-47.46093750000001 -36, -47.46093750000001 -36, -47.4609375 -36 M-47.460937500000014 -36 C-47.46093750000001 -36, -47.4609375 -36, -47.4609375 -36" stroke="#3fb950" stroke-width="2" fill="none" stroke-dasharray="0 0" style="fill:#0f1d33 !important;stroke:#3fb950 !important;stroke-width:2px !important;rx:10 !important;ry:10 !important"/></g><g class="label" style="color:#3fb950 !important" transform="translate(-54.4609375, -24)"><rect/><foreignObject width="108.921875" height="48"><div style="color: rgb(63, 185, 80) !important; display: table-cell; white-space: nowrap; line-height: 1.5; max-width: 200px; text-align: center;" xmlns="http://www.w3.org/1999/xhtml"><span style="color:#3fb950 !important" class="nodeLabel"><p><b>/emu : report</b><br /><small style="color:#8b949e">session dashboard</small></p></span></div></foreignObject></g></g></g></g><marker id="my-svg_flowchart-v2-pointEnd-margin__8b949e" class="marker flowchart-v2" viewBox="0 0 11.5 14" refX="11.5" refY="7" markerUnits="userSpaceOnUse" markerWidth="10.5" markerHeight="14" orient="auto"><path d="M 0 0 L 11.5 7 L 0 14 z" class="arrowMarkerPath" style="stroke-width: 0; stroke-dasharray: 1, 0;" stroke="#8b949e" fill="#8b949e"/></marker></g><defs><filter id="my-svg-drop-shadow" height="130%" width="130%"><feDropShadow dx="4" dy="4" stdDeviation="0" flood-opacity="0.06" flood-color="#FFFFFF"/></filter></defs><defs><filter id="my-svg-drop-shadow-small" height="150%" width="150%"><feDropShadow dx="2" dy="2" stdDeviation="0" flood-opacity="0.06" flood-color="#FFFFFF"/></filter></defs><linearGradient id="my-svg-gradient" gradientUnits="objectBoundingBox" x1="0%" y1="0%" x2="100%" y2="0%"><stop offset="0%" stop-color="#cccccc" stop-opacity="1"/><stop offset="100%" stop-color="hsl(180, 0%, 18.3529411765%)" stop-opacity="1"/></linearGradient><text text-anchor="middle" x="769.0234375" y="-25" class="flowchartTitleText">Emu per-session state flow</text></svg>